<?xml version="1.0" encoding="utf-8"?>
<!-- Generator: Adobe Illustrator 22.1.0, SVG Export Plug-In . SVG Version: 6.00 Build 0)  -->
<svg version="1.1" id="图层_1" xmlns="http://www.w3.org/2000/svg" xmlns:xlink="http://www.w3.org/1999/xlink" x="0px" y="0px"
	 viewBox="0 0 200 200" style="enable-background:new 0 0 200 200;" xml:space="preserve">
<style type="text/css">
	.st0{fill:#0E86FE;}
</style>
<path class="st0" d="M0.2,93.3V26.4C0.2,2,13.6,0.2,26.7,0.2h106.5c20.4,0,26.9,6.9,26.9,26.5v13.5c0,10.5-13.5,9.5-13.5,0V26.7
	c0-9.8-3.3-13.5-13.5-13.5H26.7c-10.9,0-13.5,1.5-13.5,13.5v133.5c0,7.3,4,13.5,13.5,13.5h26.5c8,0,8.7,13.5,0,13.5H21.6
	c-9.5,0-17.5-5.8-20.4-14.5c-0.7-2.5-1.1-5.1-1.1-7.6L0.2,93.3"/>
<path class="st0" d="M132.9,199.8c-36.7,0-66.5-29.8-66.5-66.5s29.8-66.5,66.5-66.5s66.9,30.2,66.9,66.9S170,199.8,132.9,199.8
	L132.9,199.8z M133.3,80.2c-29.1,0-53.1,24-53.1,53.1c0,29.5,23.6,53.1,53.1,53.5c29.5,0,53.5-23.6,53.5-52.7
	C186.4,104.2,162.7,80.2,133.3,80.2z M90.3,60c7,0,6,13.5,0,13.5h-53c-6.5,0-6.3-13.5,0-13.5C37.4,60,90.3,60,90.3,60z M119.8,30.7
	c10.5,0,9.1,13.5,0,13.5h-80c-9.8,0-9.5-13.5,0-13.5C39.8,30.7,119.8,30.7,119.8,30.7z M53.3,93.2c10.5,0,9.1,13.5,0,13.5H39.8
	c-9.8,0-9.5-13.5,0-13.5C39.8,93.2,53.3,93.2,53.3,93.2z"/>
<path class="st0" d="M166.2,111c0.2,0.5,0.3,0.9,0.4,1.4c0.1,0.6,0.2,1.1,0.2,1.7s-0.1,1.2-0.3,1.8c-0.3,0.6-0.6,1.2-1.1,1.7
	s-1,1-1.5,1.4l-1.1,1.1l-1,1L149,108.3c0.5-0.5,1.2-1.1,2-1.8s1.4-1.3,1.9-1.7c0.6-0.5,1.3-0.8,2-1.1c0.7-0.2,1.3-0.3,2-0.3
	s1.3,0.1,1.9,0.3s1.1,0.4,1.6,0.6c1,0.5,2,1.4,3.2,2.6S165.6,109.6,166.2,111L166.2,111z M112.8,144.4c0.3-0.3,0.9-0.9,1.9-2
	c1-1.1,2.3-2.3,3.8-3.8l25.3-25.3l12.8,12.9L141.9,141l-5.5,5.6c-1.8,1.8-3.5,3.4-4.9,4.9c-1.5,1.5-2.7,2.7-3.6,3.7
	c-1,1-1.5,1.5-1.7,1.6c-0.5,0.4-1,0.8-1.6,1.3c-0.6,0.4-1.2,0.8-1.9,1.1c-0.6,0.3-1.6,0.7-2.8,1.2s-2.5,0.9-3.9,1.3
	c-1.3,0.4-2.6,0.8-3.8,1.1s-2.1,0.5-2.7,0.6c-1.2,0.1-2.1,0-2.5-0.5s-0.5-1.3-0.3-2.5c0.1-0.6,0.3-1.6,0.7-2.8
	c0.3-1.2,0.7-2.5,1.1-3.8c0.4-1.3,0.8-2.5,1.1-3.6c0.4-1.1,0.7-1.9,0.9-2.3l0.9-1.8C111.8,145.5,112.2,144.9,112.8,144.4
	L112.8,144.4z"/>
</svg>
