<?xml version="1.0" encoding="utf-8"?>
<!-- Generator: Adobe Illustrator 16.0.0, SVG Export Plug-In . SVG Version: 6.00 Build 0)  -->
<!DOCTYPE svg PUBLIC "-//W3C//DTD SVG 1.1//EN" "http://www.w3.org/Graphics/SVG/1.1/DTD/svg11.dtd">
<svg version="1.1" id="图层_1" xmlns="http://www.w3.org/2000/svg" xmlns:xlink="http://www.w3.org/1999/xlink" x="0px" y="0px"
	 width="226.77px" height="226.77px" viewBox="0 0 226.77 226.77" enable-background="new 0 0 226.77 226.77" xml:space="preserve">
<path fill="#F4B27A" d="M80.338,62.069c-11.645,0-21.119,9.473-21.119,21.118c0,11.646,9.474,21.119,21.119,21.119h21.118V83.187
	C101.456,71.542,91.983,62.069,80.338,62.069z"/>
<path fill="#F4B27A" d="M59.219,153.583c0,11.645,9.474,21.117,21.119,21.117c11.646,0,21.118-9.473,21.118-21.117v-21.119H80.338
	C68.693,132.464,59.219,141.938,59.219,153.583z"/>
<path fill="#F4B27A" d="M150.732,132.464h-21.118v21.119c0,11.645,9.473,21.117,21.118,21.117s21.118-9.473,21.118-21.117
	C171.851,141.938,162.378,132.464,150.732,132.464z"/>
<path fill="#F4B27A" d="M113.385,1.635c-61.717,0-111.75,50.033-111.75,111.75c0,61.718,50.033,111.75,111.75,111.75
	c61.718,0,111.75-50.032,111.75-111.75C225.135,51.667,175.103,1.635,113.385,1.635z M110.842,153.583
	c0,16.847-13.656,30.504-30.504,30.504c-16.847,0-30.504-13.657-30.504-30.504c0-16.848,13.657-30.505,30.504-30.505h30.504V153.583
	z M110.842,113.691H80.338c-16.847,0-30.504-13.656-30.504-30.504c0-16.846,13.657-30.504,30.504-30.504
	c16.848,0,30.504,13.658,30.504,30.504V113.691z M150.732,184.087c-16.847,0-30.504-13.657-30.504-30.504v-30.505h30.504
	c16.848,0,30.505,13.657,30.505,30.505C181.237,170.43,167.58,184.087,150.732,184.087z M150.732,113.691h-30.504V83.187
	c0-16.846,13.657-30.504,30.504-30.504c16.848,0,30.505,13.658,30.505,30.504C181.237,100.035,167.58,113.691,150.732,113.691z"/>
<path fill="#F4B27A" d="M150.732,62.069c-11.646,0-21.118,9.473-21.118,21.118v21.119h21.118c11.646,0,21.118-9.472,21.118-21.119
	C171.851,71.542,162.378,62.069,150.732,62.069z"/>
</svg>
