<?xml version="1.0" encoding="utf-8"?>
<!-- Generator: Adobe Illustrator 16.0.0, SVG Export Plug-In . SVG Version: 6.00 Build 0)  -->
<!DOCTYPE svg PUBLIC "-//W3C//DTD SVG 1.1//EN" "http://www.w3.org/Graphics/SVG/1.1/DTD/svg11.dtd">
<svg version="1.1" id="图层_1" xmlns="http://www.w3.org/2000/svg" xmlns:xlink="http://www.w3.org/1999/xlink" x="0px" y="0px"
	 width="226.77px" height="226.77px" viewBox="0 0 226.77 226.77" enable-background="new 0 0 226.77 226.77" xml:space="preserve">
<path fill="#E55F94" d="M113.385,1.635c-61.717,0-111.75,50.033-111.75,111.75c0,61.718,50.033,111.75,111.75,111.75
	c61.718,0,111.75-50.032,111.75-111.75C225.135,51.667,175.103,1.635,113.385,1.635z M177.026,91.751l-75.627,74.621
	c-1.754,1.725-4.104,2.695-6.557,2.695h-0.27c-2.547-0.074-4.953-1.186-6.651-3.079l-36.554-40.489
	c-3.451-3.825-3.152-9.72,0.672-13.17c3.833-3.461,9.737-3.145,13.179,0.67l30.025,33.243l68.687-67.774
	c3.657-3.609,9.57-3.59,13.19,0.094C180.738,82.229,180.7,88.132,177.026,91.751z"/>
</svg>
