<?xml version="1.0" encoding="utf-8"?>
<!-- Generator: Adobe Illustrator 16.0.0, SVG Export Plug-In . SVG Version: 6.00 Build 0)  -->
<!DOCTYPE svg PUBLIC "-//W3C//DTD SVG 1.1//EN" "http://www.w3.org/Graphics/SVG/1.1/DTD/svg11.dtd">
<svg version="1.1" id="图层_1" xmlns="http://www.w3.org/2000/svg" xmlns:xlink="http://www.w3.org/1999/xlink" x="0px" y="0px"
	 width="226.77px" height="226.77px" viewBox="0 0 226.77 226.77" enable-background="new 0 0 226.77 226.77" xml:space="preserve">
<path fill="#21B7C1" d="M145.019,78.917c2.252-6.307,4.055-13.514,4.055-21.623H79.25c0,8.109,1.352,15.316,4.054,21.623
	C93.666,82.07,134.658,82.07,145.019,78.917z"/>
<path fill="#21B7C1" d="M127.45,131.17c-3.153-3.152-8.107-10.36-13.063-10.36c-4.955,0-9.91,6.757-13.063,9.911
	c-12.163,11.712-21.622,25.226-22.073,46.398h5.856c9.459,0,22.974-9.461,28.831-9.461c6.306,0,19.369,9.461,28.831,9.91h6.756
	C149.073,156.396,139.613,142.882,127.45,131.17z"/>
<path fill="#21B7C1" d="M113.385,1.635c-61.717,0-111.75,50.033-111.75,111.75c0,61.718,50.033,111.75,111.75,111.75
	c61.718,0,111.75-50.032,111.75-111.75C225.135,51.667,175.103,1.635,113.385,1.635z M158.983,188.38H70.242
	c-3.153,0-5.856-2.702-5.856-5.856c0-3.153,2.703-5.856,5.856-5.856h3.154c0.449-25.226,12.612-40.991,26.577-54.056
	c3.153-3.152,3.153-8.107,0-11.262C85.557,97.836,73.845,82.52,73.396,56.844h-3.604c-3.154,0-5.856-2.703-5.856-5.856
	s2.703-5.856,6.307-5.406h88.291c3.154,0,5.856,2.703,5.856,5.856c0,3.154-2.702,5.856-5.856,5.856h-3.604
	c-0.45,25.677-12.612,40.993-26.578,54.507c-2.702,2.251-4.054,7.207,0,11.262c13.966,13.063,26.128,28.83,26.578,54.057h3.604
	c3.604,0,6.308,2.702,6.308,5.404C164.84,185.678,162.137,188.38,158.983,188.38z"/>
</svg>
