<?xml version="1.0" encoding="utf-8"?>
<!DOCTYPE svg PUBLIC "-//W3C//DTD SVG 1.1//EN" "http://www.w3.org/Graphics/SVG/1.1/DTD/svg11.dtd">
<svg version="1.1" id="图形" xmlns="http://www.w3.org/2000/svg" xmlns:xlink="http://www.w3.org/1999/xlink" x="0px" y="0px" width="1000px" height="1024px" viewBox="0 0 1000 1024" enable-background="new 0 0 1000 1024" xml:space="preserve">
  <path fill="#1195db" d="M964.3067 94.2867c-21.3 12.7733-23.4267 40.4467 10.6467 74.5333 34.0667 34.0667 17.04 76.66-14.9 91.5667-31.9467 14.9-42.62 38.7867 0 55.3667 38.3267 14.9 38.3267 85.1733-2.1333 132.0333-36.7467 42.5533-291.7333 21.2933-291.7333 21.2933s2.1267 2.1267 2.1267 140.5467c0 138.4267-40.46 172.4933-108.6 170.3733C491.5667 777.8667 512.8667 737.3933 472.4 573.4267c-40.46-163.98-202.3-276.8333-202.3-276.8333v-374.8c27.6867-38.3333 87.3067-51.1067 106.48-59.6267 19.1667-8.52 215.0733-25.5533 215.0733-25.5533s319.4133 23.4333 334.32 68.1467-21.94 65.6 23.4267 83.0533C1004.7667 9.1 985.6 81.5 964.3067 94.2867zM0.2667 303.0933v-367.94666666666666c0-37.0067 29.9933-67 67-67h132.62V370.09999999999997H67.26C30.26 370.1 0.2667 340.1067 0.2667 303.0933z" transform="translate(0, 812) scale(1, -1)"/>
</svg>
