<?xml version="1.0" encoding="utf-8"?>
<!-- Generator: Adobe Illustrator 16.0.0, SVG Export Plug-In . SVG Version: 6.00 Build 0)  -->
<!DOCTYPE svg PUBLIC "-//W3C//DTD SVG 1.1//EN" "http://www.w3.org/Graphics/SVG/1.1/DTD/svg11.dtd">
<svg version="1.1" id="图层_1" xmlns="http://www.w3.org/2000/svg" xmlns:xlink="http://www.w3.org/1999/xlink" x="0px" y="0px"
	 width="226.77px" height="226.77px" viewBox="0 0 226.77 226.77" enable-background="new 0 0 226.77 226.77" xml:space="preserve">
<path fill="#3C8DCC" d="M113.385,1.635c-61.717,0-111.75,50.033-111.75,111.75c0,61.718,50.033,111.75,111.75,111.75
	c61.718,0,111.75-50.032,111.75-111.75C225.135,51.667,175.103,1.635,113.385,1.635z M134.674,58.667
	c0-2.514,2.044-4.557,4.566-4.557s4.565,2.043,4.565,4.557v15.21c0,2.523-2.043,4.566-4.565,4.566s-4.566-2.043-4.566-4.566V58.667z
	 M151.417,93.662c2.521,0,4.564,2.042,4.564,4.558c0,2.523-2.044,4.566-4.564,4.566H75.362c-2.522,0-4.565-2.043-4.565-4.566
	c0-2.515,2.043-4.558,4.565-4.558H151.417z M95.13,60.198h36.51v9.122H95.13V60.198z M82.963,58.667
	c0-2.514,2.043-4.557,4.566-4.557c2.521,0,4.557,2.043,4.557,4.557v15.21c0,2.523-2.043,4.566-4.557,4.566
	c-2.516,0-4.566-2.043-4.566-4.557V58.667z M174.236,154.505c-0.009,13.436-10.906,24.334-24.344,24.334H76.875
	c-13.436,0-24.341-10.898-24.341-24.343V84.53c0-13.444,10.897-24.341,24.341-24.341h3.044v9.122h-3.044
	c-8.399,0-15.21,6.812-15.21,15.211v63.886v6.088c0,8.401,6.811,15.221,15.21,15.221h73.018c8.401,0,15.211-6.819,15.211-15.221
	v-6.088V84.53c0-8.399-6.81-15.21-15.211-15.21h-3.043v-9.122h3.043c13.446,0,24.344,10.896,24.344,24.341V154.505z"/>
</svg>
