<?xml version="1.0" standalone="no"?>
<!DOCTYPE svg PUBLIC "-//W3C//DTD SVG 1.1//EN" "http://www.w3.org/Graphics/SVG/1.1/DTD/svg11.dtd" >
<!--
2013-9-30: Created.
-->
<svg>
<metadata>
Created by iconfont
</metadata>
<defs>

<font id="iconfont" horiz-adv-x="1024" >
  <font-face
    font-family="iconfont"
    font-weight="500"
    font-stretch="normal"
    units-per-em="1024"
    ascent="896"
    descent="-128"
  />
    <missing-glyph />
    
    <glyph glyph-name="yangshengqi" unicode="&#58911;" d="M830.450526 42.240001q-11.722105-8.791579-27.351579-8.791579-19.536842 0-33.701053 14.164211t-14.164211 33.701053q0 21.490526 16.606316 36.143158 0.976842 0.976842 1.953684 1.465263t1.953684 1.465263l0.976842 0.976842q27.351579 18.56 50.795789 43.957895t41.027368 55.191579 27.351579 63.494737 9.768421 69.84421q0 73.263158-37.12 133.827368t-92.8 99.637895q-20.513684 14.652632-20.513684 39.073684 0 19.536842 14.164211 33.701053t33.701053 14.164211q16.606316 0 29.305263-10.745263 36.143158-25.397895 67.402105-59.098947t53.726316-73.263158 35.166316-84.496842 12.698947-92.8q0-48.842105-12.698947-93.776842t-35.654737-84.985263-54.214737-73.751579-68.378947-59.098947zM775.747368 480.842106q20.513684-28.328421 32.72421-57.145263t12.210526-69.84421q0-39.073684-12.698947-70.332632t-32.235789-56.656842q-7.814737-10.745263-16.606316-19.048421t-22.467368-8.303158q-17.583158 0-29.793684 12.698947t-12.210526 30.282105q0 7.814737 2.930526 15.629474l-0.976842 0q4.884211 10.745263 11.722105 20.513684t13.187368 20.025263 10.745263 23.444211 4.395789 31.747368q0 17.583158-4.395789 30.770526t-10.745263 23.932632-13.187368 20.513684-10.745263 20.513684q-2.930526 6.837895-2.930526 15.629474 0 17.583158 12.210526 30.282105t29.793684 12.698947q13.675789 0 22.467368-8.303158t16.606316-19.048421zM460.227368-99.402104q-49.818947 44.934737-105.498947 93.776842t-103.545263 89.869474q-55.68 46.888421-111.36 92.8-10.745263-0.976842-21.490526-0.976842-8.791579-0.976842-18.56-0.976842l-16.606316 0q-26.374737 0-42.981053 16.117895t-16.606316 38.585263l0 246.16421 0.976842 0-0.976842 0.976842q0 27.351579 17.094737 44.934737t42.492632 17.583158l55.68 0q89.869474 76.193684 163.132631 136.757895 31.258947 26.374737 61.541053 51.28421t54.703158 45.423158 41.027368 34.189474 20.513684 16.606316q29.305263 21.490526 47.376842 19.536842t28.328421-17.583158 14.164211-38.096842 3.907368-41.027368l0-788.311578 0-2.930526q0-18.56-6.837895-39.562105t-21.002105-33.212632-35.654737-10.256842-49.818947 28.328421z"  horiz-adv-x="1024" />

    
    <glyph glyph-name="cuowu" unicode="&#58912;" d="M886.784 149.504q29.696-30.72 43.52-56.32t-4.608-58.368q-4.096-6.144-11.264-14.848t-14.848-16.896-15.36-14.848-12.8-9.728q-25.6-15.36-60.416-8.192t-62.464 34.816l-43.008 43.008-57.344 57.344-67.584 67.584-73.728 73.728-131.072-131.072q-60.416-60.416-98.304-99.328-38.912-38.912-77.312-48.128t-68.096 17.408l-7.168 7.168-11.264 11.264-11.264 11.264q-6.144 6.144-7.168 8.192-11.264 14.336-13.312 29.184t2.56 29.184 13.824 27.648 20.48 24.576q9.216 8.192 32.768 30.72l55.296 57.344q33.792 32.768 75.264 73.728t86.528 86.016q-49.152 49.152-93.696 93.184t-79.872 78.848-57.856 56.832-27.648 27.136q-26.624 26.624-27.136 52.736t17.92 52.736q8.192 10.24 23.552 24.064t21.504 17.92q30.72 20.48 55.296 17.92t49.152-28.16l31.744-31.744q23.552-23.552 58.368-57.344t78.336-76.288 90.624-88.576q38.912 38.912 76.288 75.776t69.632 69.12 58.368 57.856 43.52 43.008q24.576 23.552 53.248 31.232t55.296-12.8q1.024-1.024 6.656-5.12t11.264-9.216 10.752-9.728 7.168-5.632q27.648-26.624 27.136-57.856t-27.136-57.856q-18.432-18.432-45.568-46.08t-60.416-60.416-70.144-69.632l-77.824-77.824q37.888-36.864 74.24-72.192t67.584-66.048 56.32-56.32 41.472-41.984z"  horiz-adv-x="1024" />

    
    <glyph glyph-name="cuowu1" unicode="&#58913;" d="M827.392 700.416q65.536-65.536 97.792-147.456t32.256-167.936-32.256-167.936-97.792-147.456-147.456-98.304-167.936-32.768-168.448 32.768-147.968 98.304-98.304 147.456-32.768 167.936 32.768 167.936 98.304 147.456 147.968 97.792 168.448 32.256 167.936-32.256 147.456-97.792zM720.896 180.224q21.504 21.504 18.944 49.152t-24.064 49.152l-107.52 107.52 107.52 107.52q21.504 21.504 24.064 49.152t-18.944 49.152-51.712 21.504-51.712-21.504l-107.52-106.496-104.448 104.448q-21.504 20.48-49.152 23.04t-49.152-17.92q-21.504-21.504-21.504-52.224t21.504-52.224l104.448-104.448-104.448-104.448q-21.504-21.504-21.504-51.712t21.504-51.712 49.152-18.944 49.152 24.064l104.448 104.448 107.52-107.52q21.504-21.504 51.712-21.504t51.712 21.504z"  horiz-adv-x="1024" />

    
    <glyph glyph-name="xiala" unicode="&#58893;" d="M267.264 461.824q9.216 10.24 23.04 10.24t23.04-10.24q10.24-9.216 10.24-22.528t-10.24-23.552l-128-126.976q-8.192-10.24-23.552-9.216t-25.6 10.24l-126.976 125.952q-9.216 10.24-9.216 23.552t9.216 22.528q10.24 10.24 23.552 10.24t23.552-10.24l105.472-103.424z"  horiz-adv-x="1024" />

    
    <glyph glyph-name="qing" unicode="&#58914;" d="M190.261174 143.032428q17.051709 16.154251 40.385627 16.154251t40.385627-16.154251q17.051709-17.051709 17.051709-40.385627t-17.051709-40.385627l-40.385627-40.385627q-17.051709-17.051709-40.385627-17.051709t-40.385627 17.051709q-16.154251 17.051709-16.154251 40.385627t16.154251 40.385627zM149.875548 665.353199q-16.154251 17.051709-16.154251 40.385627t16.154251 40.385627q17.051709 17.051709 40.385627 17.051709t40.385627-17.051709l40.385627-40.385627q17.051709-17.051709 17.051709-40.385627t-17.051709-39.488168q-17.051709-17.051709-40.385627-17.051709t-40.385627 17.051709zM834.636284 625.865031q-17.051709-17.051709-40.385627-17.051709t-40.385627 17.051709q-17.051709 16.154251-17.051709 39.488168t17.051709 40.385627l40.385627 40.385627q16.154251 17.051709 39.936897 17.051709t39.936897-17.051709q17.051709-17.051709 17.051709-40.385627t-17.051709-40.385627zM512.448729 725.48291q-23.333918 0-40.385627 16.60298t-17.051709 39.936897l0 57.437336q0 23.333918 17.051709 39.936897t40.385627 16.60298 39.936897-16.60298 16.60298-39.936897l0-57.437336q0-23.333918-16.60298-39.936897t-39.936897-16.60298zM170.51709 384.448729q0-23.333918-16.60298-40.385627t-39.936897-17.051709l-56.539877 0q-23.333918 0-40.385627 17.051709t-17.051709 40.385627 17.051709 39.936897 40.385627 16.60298l56.539877 0q23.333918 0 39.936897-16.60298t16.60298-39.936897zM874.124452 102.646801q17.051709-17.051709 17.051709-40.385627t-17.051709-40.385627q-16.154251-17.051709-39.936897-17.051709t-39.936897 17.051709l-40.385627 40.385627q-17.051709 17.051709-17.051709 40.385627t17.051709 40.385627q17.051709 16.154251 40.385627 16.154251t40.385627-16.154251zM512.448729 667.148116q58.334794 0 109.93865-22.436459t90.194566-60.57844 61.027169-89.745837 22.436459-109.93865q0-59.232252-22.436459-110.836109t-61.027169-89.745837-90.194566-60.57844-109.93865-22.436459q-59.232252 0-110.836109 22.436459t-89.745837 60.57844-60.57844 89.745837-22.436459 110.836109q0 58.334794 22.436459 109.93865t60.57844 89.745837 89.745837 60.57844 110.836109 22.436459zM512.448729 210.341805q35.898335 0 67.758107 13.910605t55.19369 37.244522 37.244522 55.19369 13.910605 67.758107-13.910605 67.309378-37.244522 55.19369-55.19369 37.244522-67.758107 13.461876-67.758107-13.461876-55.19369-37.244522-37.244522-55.19369-13.910605-67.309378 13.910605-67.758107 37.244522-55.19369 55.19369-37.244522 67.758107-13.910605zM512.448729 42.51709q23.333918 0 39.936897-16.60298t16.60298-39.936897l0-57.437336q0-23.333918-16.60298-39.936897t-39.936897-16.60298-40.385627 16.60298-17.051709 39.936897l0 57.437336q0 23.333918 17.051709 39.936897t40.385627 16.60298zM967.460123 440.988606q23.333918 0 39.936897-16.60298t16.60298-39.936897-16.60298-40.385627-39.936897-17.051709l-56.539877 0q-23.333918 0-40.385627 17.051709t-17.051709 40.385627 17.051709 39.936897 40.385627 16.60298l56.539877 0z"  horiz-adv-x="1024" />

    
    <glyph glyph-name="duoyun" unicode="&#58915;" d="M882.526316 609.203008q-17.323308-17.323308-42.345865-17.323308t-42.345865 17.323308q-18.285714 18.285714-18.285714 42.827068t18.285714 42.827068l42.345865 42.345865q17.323308 17.323308 42.345865 17.323308t42.345865-17.323308q18.285714-17.323308 18.285714-42.345865t-18.285714-43.308271zM250.225564 284.87218q-3.849624 16.360902-6.255639 33.684211t-2.406015 35.609023q0 61.593985 23.578947 116.451128t64.481203 95.278195 95.278195 64 116.932331 23.578947q72.180451 0 132.330827-30.796992t101.533835-82.766917q-31.759398-6.736842-61.593985-14.43609t-57.744361-23.097744q-24.06015 19.24812-52.451128 27.428571t-62.075188 8.180451q-38.496241 0-71.699248-14.43609t-58.225564-39.458647-39.458647-58.706767-14.43609-71.218045q0-27.909774 6.736842-49.082707-30.796992 0-58.706767-5.293233t-55.819549-14.917293zM541.834586 715.067669q-25.022556 0-42.827068 17.804511t-17.804511 42.827068l0 59.669173q0 25.022556 17.804511 42.827068t42.827068 17.804511 42.827068-17.804511 17.804511-42.827068l0-59.669173q0-25.022556-17.804511-42.827068t-42.827068-17.804511zM158.796992 651.548872q-18.285714 18.285714-18.285714 43.308271t18.285714 42.345865q17.323308 17.323308 42.345865 17.323308t42.345865-17.323308l42.345865-42.345865q18.285714-18.285714 18.285714-42.827068t-18.285714-42.827068q-17.323308-17.323308-42.345865-17.323308t-42.345865 17.323308zM853.654135 474.466165q69.293233 0 132.81203-27.428571t111.639098-74.105263 76.511278-109.233083 28.390977-131.849624q0-56.781955-12.511278-100.090226t-37.533835-88.541353q-12.511278-22.135338-27.909774-35.609023t-32.240602-21.654135-34.165414-11.067669-34.646617-2.887218l-783.398496 0q-21.172932 0-42.345865 13.954887t-38.496241 35.12782-27.909774 47.157895-10.586466 50.045113q0 103.93985 56.781955 159.759398t150.135338 55.819549q22.135338 0 39.458647-2.887218t32.240602-8.180451 29.834586-13.954887 32.240602-20.210526q10.586466 59.669173 42.345865 111.639098t82.285714 90.947368 117.894737 61.112782 149.172932 22.135338zM1024-9.62406q22.135338 6.736842 42.345865 42.345865t20.210526 99.12782q0 48.120301-17.323308 89.503759t-48.120301 71.218045-72.180451 46.676692-89.503759 16.842105-84.210526-7.699248-63.037594-19.24812-45.233083-25.984962-30.796992-26.947368q-12.511278-13.473684-25.022556-31.759398t-22.135338-38.496241-14.43609-40.421053-1.924812-35.609023q3.849624-27.909774-10.586466-47.157895t-37.052632-27.428571-47.639098-3.849624-42.345865 23.578947-41.864662 29.834586-61.112782 10.586466q-29.834586 0-48.601504-4.330827t-29.353383-13.473684-14.43609-23.097744-3.849624-32.240602q0-15.398496 6.736842-25.503759t17.804511-15.879699 24.541353-8.180451 26.947368-2.406015l712.180451 0zM179.969925 354.165414q0-25.022556-17.323308-42.827068t-42.345865-17.804511l-60.631579 0q-25.022556 0-42.345865 17.804511t-17.323308 42.827068 17.323308 42.345865 42.345865 17.323308l60.631579 0q25.022556 0 42.345865-17.323308t17.323308-42.345865z"  horiz-adv-x="1204" />

    
    <glyph glyph-name="yun" unicode="&#58916;" d="M780.288 768q73.728 0 141.312-29.184t119.296-78.848 81.92-115.712 30.208-140.8q0-60.416-19.456-122.88t-46.08-110.592q-13.312-23.552-37.376-43.008t-51.712-33.792-54.272-22.528-45.056-8.192l-714.752 0q-39.936 0-73.216 13.312t-57.856 36.864-38.4 56.832-13.824 73.216q0 55.296 13.312 104.448t40.448 86.016 68.608 58.368 97.792 21.504q24.576 0 42.496-3.072t34.304-8.704 32.256-14.848 34.304-21.504q10.24 62.464 44.032 117.76t87.552 96.768 125.44 65.024 158.72 23.552zM861.184 188.416q32.768 0 62.976 14.336t53.76 41.984 37.376 67.584 13.824 91.136-18.432 95.232-51.2 75.776-77.312 49.664-95.744 17.92-89.6-8.192-66.56-20.48-47.616-27.136-32.768-28.16q-14.336-14.336-27.648-34.304t-23.04-41.472-15.36-43.008-2.56-37.888q4.096-29.696-11.264-50.176t-39.424-29.184-50.688-4.096-44.032 25.088q-19.456 20.48-45.568 31.744t-65.024 11.264q-31.744 0-51.2-12.288t-30.72-30.72-15.36-40.448-4.096-41.472q0-16.384 7.168-29.696t18.944-23.04 26.112-14.848 28.672-5.12l656.384 0z"  horiz-adv-x="1154" />

    
    <glyph glyph-name="wuqi" unicode="&#58917;" d="M780.288 768q73.728 0 141.312-29.184t119.296-78.848 81.92-115.712 30.208-140.8q0-60.416-19.456-122.88t-46.08-110.592q-13.312-23.552-37.376-43.008t-51.712-33.792-54.272-22.528-45.056-8.192l-714.752 0q-39.936 0-73.216 13.312t-57.856 36.864-38.4 56.832-13.824 73.216q0 55.296 13.312 104.448t40.448 86.016 68.608 58.368 97.792 21.504q24.576 0 42.496-3.072t34.304-8.704 32.256-14.848 34.304-21.504q10.24 62.464 44.032 117.76t87.552 96.768 125.44 65.024 158.72 23.552zM786.432 642.048q-86.016 0-137.216-20.992t-79.872-45.568l388.096 0q-32.768 31.744-76.288 49.152t-94.72 17.408zM515.072 512q-19.456-32.768-28.672-64.512l538.624 0q-6.144 31.744-20.48 64.512l-489.472 0zM225.28 386.048q-40.96 0-62.464-19.968t-30.72-46.592l245.76 0q-23.552 4.096-43.008 23.552-18.432 20.48-44.544 31.744t-65.024 11.264zM861.184 188.416q35.84 0 68.096 16.896t55.808 49.664l-861.184 0q1.024-15.36 8.704-27.648t18.944-20.992 25.088-13.312 28.16-4.608l656.384 0zM1016.832 319.488q10.24 30.72 11.264 63.488l-545.792 0q-2.048-25.6-20.48-41.984t-43.008-21.504l598.016 0z"  horiz-adv-x="1154" />

    
    <glyph glyph-name="yu" unicode="&#58918;" d="M780.288 896q73.728 0 141.312-29.184t119.296-78.848 81.92-115.712 30.208-139.776q0-60.416-19.456-122.88t-46.08-111.616q-13.312-23.552-37.376-43.008t-51.712-33.28-54.272-22.016-45.056-8.192l-714.752 0q-39.936 0-73.216 12.8t-57.856 36.864-38.4 57.344-13.824 73.216q0 55.296 13.312 103.936t40.448 85.504 68.608 58.368 97.792 21.504q24.576 0 42.496-3.072t34.304-8.704 32.256-14.848 34.304-21.504q10.24 63.488 44.544 118.784t88.064 96.256 125.44 64.512 157.696 23.552zM861.184 316.416q32.768 0 62.976 14.336t53.76 41.984 37.376 67.584 13.824 91.136-18.432 95.232-51.2 75.776-77.312 49.664-95.744 17.92-89.6-8.192-66.56-20.48-47.616-27.136-32.768-28.16q-14.336-14.336-27.648-34.304t-23.04-41.472-14.848-43.008-3.072-37.888q4.096-29.696-11.264-50.176t-39.424-28.672-50.688-3.584-44.032 25.088q-19.456 20.48-45.568 31.232t-65.024 10.752q-31.744 0-51.2-12.288t-30.72-30.72-15.36-40.448-4.096-41.472q0-16.384 7.168-29.696t18.944-23.04 26.112-14.848 28.672-5.12l656.384 0zM192.512 126.976q26.624 0 45.568-18.944t18.944-45.568l0-63.488q0-26.624-18.944-45.568t-45.568-18.944-45.568 18.944-18.944 45.568l0 63.488q0 26.624 18.944 45.568t45.568 18.944zM513.024 126.976q26.624 0 45.568-18.944t18.944-45.568l0-63.488q0-26.624-18.944-45.568t-45.568-18.944-45.568 18.944-18.944 45.568l0 63.488q0 26.624 18.944 45.568t45.568 18.944zM833.536 126.976q26.624 0 45.568-18.944t18.944-45.568l0-63.488q0-26.624-18.944-45.568t-45.568-18.944-45.568 18.944-18.944 45.568l0 63.488q0 26.624 18.944 45.568t45.568 18.944z"  horiz-adv-x="1154" />

    
    <glyph glyph-name="xiaoyu" unicode="&#58919;" d="M780.288 896q73.728 0 141.312-29.184t119.296-78.848 81.92-115.712 30.208-139.776q0-60.416-19.456-122.88t-46.08-111.616q-13.312-23.552-37.376-43.008t-51.712-33.28-54.272-22.016-45.056-8.192l-714.752 0q-39.936 0-73.216 12.8t-57.856 36.864-38.4 57.344-13.824 73.216q0 55.296 13.312 103.936t40.448 85.504 68.608 58.368 97.792 21.504q24.576 0 42.496-3.072t34.304-8.704 32.256-14.848 34.304-21.504q10.24 63.488 44.032 118.784t87.552 96.256 125.44 64.512 158.72 23.552zM861.184 316.416q32.768 0 62.976 14.336t53.76 41.984 37.376 67.584 13.824 91.136-18.432 95.232-51.2 75.776-77.312 49.664-95.744 17.92-89.6-8.192-66.56-20.48-47.616-27.136-32.768-28.16q-14.336-14.336-27.648-34.304t-23.04-41.472-14.848-42.496-3.072-38.4q4.096-29.696-11.264-50.176t-39.424-28.672-50.688-3.584-44.032 25.088q-19.456 20.48-45.568 31.232t-65.024 10.752q-31.744 0-51.2-12.288t-30.72-30.72-15.36-40.448-4.096-41.472q0-16.384 7.168-29.696t18.944-23.04 26.112-14.848 28.672-5.12l656.384 0zM257.024 126.976q26.624 0 45.056-18.944t18.432-45.568l0-63.488q0-26.624-18.432-45.568t-45.056-18.944-45.568 18.944-18.944 45.568l0 63.488q0 26.624 18.944 45.568t45.568 18.944zM769.024 126.976q26.624 0 45.568-18.944t18.944-45.568l0-63.488q0-26.624-18.944-45.568t-45.568-18.944-45.056 18.944-18.432 45.568l0 63.488q0 26.624 18.432 45.568t45.056 18.944z"  horiz-adv-x="1154" />

    
    <glyph glyph-name="leidian" unicode="&#58920;" d="M674.242038 896q58.700637 0 112.509554-23.235669t94.980892-62.77707 65.22293-92.127389 24.050955-111.286624q0-48.101911-15.490446-97.834395t-36.687898-88.866242q-10.598726-18.751592-29.757962-34.242038t-41.171975-26.496815-43.210191-17.528662-35.872611-6.522293l-569.070064 0q-31.796178 0-58.292994 10.191083t-46.063694 29.350318-30.573248 45.656051-11.006369 58.292994q0 44.025478 10.598726 82.751592t32.203822 68.076433 54.624204 46.471338 77.859873 17.121019q19.566879 0 33.834395-2.44586t27.312102-6.929936 25.681529-11.821656 27.312102-17.121019q8.152866 50.547771 35.057325 94.573248t69.707006 76.636943 99.872611 51.363057 126.369427 18.751592zM738.649682 434.547771q26.089172 0 50.140127 11.414013t42.802548 33.426752 29.757962 53.808917 11.006369 72.56051-14.675159 75.821656-40.764331 60.33121-61.55414 39.541401-76.229299 14.267516-71.33758-6.522293-52.993631-16.305732-37.910828-21.605096-26.089172-22.420382q-11.414013-11.414013-22.012739-27.312102t-18.343949-33.019108-11.821656-34.242038-2.44586-30.165605q3.261146-23.643312-8.968153-39.949045t-31.388535-22.828025-40.356688-2.853503-35.057325 19.974522q-15.490446 16.305732-36.280255 24.866242t-51.770701 8.56051q-25.273885 0-40.764331-9.783439t-24.458599-24.458599-12.229299-32.203822-3.261146-33.019108q0-13.044586 5.707006-23.643312t15.082803-18.343949 20.789809-11.821656 22.828025-4.076433l522.598726 0zM512.815287 181.808917l100.280255 0-100.280255-309.808917 0 210.343949-103.541401 0 2.44586 199.745223 101.095541 0 0-100.280255z"  horiz-adv-x="1024" />

    
    <glyph glyph-name="feng" unicode="&#58921;" d="M444.416 640q0 27.648 10.24 51.2t28.16 41.472 41.472 28.16 51.2 10.24q26.624 0 50.176-10.24t41.472-28.16 28.16-41.472 10.24-51.2q0-26.624-10.24-50.688t-28.16-41.472-41.472-27.648-50.176-10.24l-12.288 0q-5.12 0-10.24 2.048l-488.448 0 0 128 379.904 0zM707.584 252.928q26.624 0 49.664-9.728t40.448-27.136 27.136-40.448 9.728-49.664-9.728-49.664-27.136-39.936-40.448-27.136-49.664-10.24-49.664 10.24-39.936 27.136-27.136 39.936-10.24 49.664l0 1.024-580.608 0 0 128 705.536 0 0-2.048 2.048 0zM992.256 641.024q32.768 0 61.952-12.8t50.688-34.816 34.304-51.2 12.8-61.952q0-33.792-12.8-62.976t-34.304-50.688-50.688-34.304-61.952-12.8l-2.048 0-990.208 0 0 128 834.56 0q-3.072 15.36-3.072 32.768 0 32.768 12.8 61.952t34.304 51.2 50.688 34.816 62.976 12.8z"  horiz-adv-x="1152" />

    
    <glyph glyph-name="nongyun" unicode="&#58922;" d="M257.79021 346.661339q-1.022977 9.206793-1.534466 18.413586t-0.511489 18.413586q0 53.194805 19.948052 100.251748t54.729271 81.838162 81.326673 54.729271 99.74026 19.948052q40.919081 0 77.746254-12.275724t68.027972-33.758242 54.729271-51.148851 37.85015-64.447552q-26.597403-3.068931-51.66034-8.183816t-48.591409-11.252747q-20.45954 36.827173-56.263736 59.332667t-81.838162 22.505495q-32.735265 0-60.867133-12.275724t-49.614386-33.758242-33.758242-50.125874-12.275724-61.378621l0-8.183816q0-4.091908 1.022977-9.206793-15.344655-2.045954-34.781219-6.649351t-48.07992-9.718282zM154.46953 649.462537q-19.436563 18.413586-19.436563 45.010989t19.436563 45.010989q18.413586 19.436563 45.010989 19.436563t45.010989-19.436563l45.010989-45.010989q19.436563-18.413586 19.436563-45.010989t-19.436563-46.033966q-18.413586-18.413586-45.010989-18.413586t-45.010989 18.413586zM511.488511 703.68032q-26.597403 0-45.010989 18.925075t-18.413586 45.522478l0 64.447552q0 26.597403 18.413586 45.010989t45.010989 18.413586 45.522478-18.413586 18.925075-45.010989l0-64.447552q0-26.597403-18.925075-45.522478t-45.522478-18.925075zM822.473526 601.382617q-18.413586-18.413586-45.010989-18.413586t-46.033966 18.413586q-18.413586 19.436563-18.413586 46.033966t18.413586 45.010989l46.033966 45.010989q18.413586 19.436563 45.010989 19.436563t45.010989-19.436563q19.436563-18.413586 19.436563-45.010989t-19.436563-45.010989zM848.047952 447.936064q72.631369 0 122.757243-17.902098t83.884116-47.056943 53.194805-67.004995 29.154845-76.723277 12.275724-75.7003 2.557443-65.470529q0-42.965035-18.925075-83.884116t-54.729271-72.631369-86.953047-50.637363-115.596404-18.925075l-513.534466 0q-64.447552 0-109.458541 16.879121t-72.631369 45.010989-39.896104 64.959041-12.275724 77.746254 15.856144 77.234765 42.965035 63.936064 63.424575 43.476523 78.257742 15.856144q59.332667 0 106.901099-30.689311t72.11988-80.815185q0 50.125874 18.413586 100.763237t58.821179 91.044955 105.366633 65.470529 158.04995 25.062937zM191.296703 383.488511q0-26.597403-18.413586-45.010989t-45.010989-18.413586l-64.447552 0q-26.597403 0-45.010989 18.413586t-18.413586 45.010989 18.413586 45.522478 45.010989 18.925075l64.447552 0q26.597403 0 45.010989-18.925075t18.413586-45.522478z"  horiz-adv-x="1152" />

    
    <glyph glyph-name="wanshang" unicode="&#58923;" d="M105.472 560.128q29.696-33.792 71.168-46.08t90.624-12.288q38.912 0 74.752 15.36t62.976 41.472 43.008 61.952 15.872 77.824q0 49.152-11.264 92.16t-45.056 72.704q63.488-26.624 103.424-83.968t39.936-131.072q0-22.528-3.072-41.984-80.896-26.624-132.608-72.704t-67.072-109.568q-25.6 25.6-72.192 39.936t-107.008 9.216q-41.984 35.84-63.488 87.04zM721.92 575.488q71.68 0 122.368-17.92t84.48-47.104 53.248-67.072 28.672-76.8 11.776-75.776 2.56-65.536q0-43.008-18.944-83.968t-54.784-72.192-87.04-50.688-115.712-19.456l-514.048 0q-64.512 0-109.056 16.896t-72.704 45.056-40.448 65.024-12.288 77.824 15.872 77.312 43.008 64 63.488 43.52 78.336 15.872q59.392 0 107.008-30.72t72.192-79.872q0 50.176 18.432 100.352t58.88 90.624 105.472 65.536 159.232 25.088z"  horiz-adv-x="1026" />

    
    <glyph glyph-name="wuyun" unicode="&#58924;" d="M721.92 703.488q58.368 0 103.936-14.848t78.848-38.912 56.32-55.808 37.376-65.536 20.48-68.096 6.144-62.976q0-61.44-23.04-111.104t-69.12-84.992-115.2-54.784-160.256-19.456l-464.896 0q-87.04 0-139.264 54.272t-52.224 150.528q0 40.96 12.8 83.968t40.96 78.336 72.192 57.856 106.496 22.528q43.008 0 79.36-13.312t64-34.816 46.08-48.64 27.648-55.808q0 59.392 18.432 111.104t53.248 89.6 84.992 59.392 114.688 21.504z"  horiz-adv-x="1026" />

    
    <glyph glyph-name="lieri" unicode="&#58925;" d="M512.909414 613.172291q47.28952 0 89.122558-18.188277t72.753108-49.108348 49.108348-72.753108 18.188277-89.122558q0-48.198934-18.188277-90.031972t-49.108348-72.753108-72.753108-49.108348-89.122558-18.188277q-48.198934 0-90.031972 18.188277t-72.753108 49.108348-49.108348 72.753108-18.188277 90.031972q0 47.28952 18.188277 89.122558t49.108348 72.753108 72.753108 49.108348 90.031972 18.188277zM967.616341 441.293073q23.64476 0 40.468917-16.824156t16.824156-40.468917-16.824156-40.468917-40.468917-16.824156l-107.310835 0q-7.275311-43.651865-24.099467-82.301954t-42.287744-72.298401l80.937833-70.024867q16.369449-16.369449 16.369449-40.01421t-16.369449-40.01421q-16.369449-17.278863-40.01421-17.278863t-40.01421 17.278863l-70.934281 80.028419q-68.206039-51.83659-154.600355-65.477798l0-108.220249q0-23.64476-16.369449-40.01421t-40.01421-16.369449-40.468917 16.369449-16.824156 40.01421l0 108.220249q-86.394316 13.641208-154.600355 65.477798l-70.024867-80.028419q-17.278863-17.278863-40.468917-17.278863t-40.468917 17.278863q-16.369449 16.369449-16.369449 40.01421t16.369449 40.01421l80.937833 70.024867q-50.927176 68.206039-66.387211 154.600355l-107.310835 0q-23.64476 0-40.468917 16.824156t-16.824156 40.468917 16.824156 40.468917 40.468917 16.824156l107.310835 0q15.460036 86.394316 66.387211 154.600355l-80.937833 70.024867q-16.369449 16.369449-16.369449 40.01421t16.369449 40.01421q17.278863 17.278863 40.468917 17.278863t40.468917-17.278863l70.024867-80.937833q33.648313 25.463588 72.298401 42.287744t82.301954 24.099467l0 108.220249q0 23.64476 16.824156 40.01421t40.468917 16.369449 40.01421-16.369449 16.369449-40.01421l0-108.220249q43.651865-7.275311 82.301954-24.099467t72.298401-42.287744l70.934281 80.937833q16.369449 17.278863 40.01421 17.278863t40.01421-17.278863q16.369449-16.369449 16.369449-40.01421t-16.369449-40.01421l-80.937833-70.024867q25.463588-33.648313 42.287744-72.298401t24.099467-82.301954l107.310835 0zM512.909414 100.262877q58.202487 0 110.039076 22.280639t90.486679 60.930728 60.930728 90.031972 22.280639 110.493783q0 58.202487-22.280639 110.039076t-60.930728 90.486679-90.486679 60.930728-110.039076 22.280639q-59.111901 0-110.94849-22.280639t-90.031972-60.930728-60.476021-90.486679-22.280639-110.039076q0-59.111901 22.280639-110.493783t60.476021-90.031972 90.031972-60.930728 110.94849-22.280639z"  horiz-adv-x="1025" />

    
    <glyph glyph-name="shachen" unicode="&#58926;" d="M1086.823424 280.351334c35.817267 58.328474 85.961318 205.684531 40.93399 378.623283-19.44361 81.864499-72.657818 149.402726-150.432358 193.404826-81.867981 46.048768-178.062746 56.281805-271.187558 27.629261-2.046669-1.023283-3.070054-1.023283-3.070054-1.023283-115.638477-40.93225-191.366246-120.750182-212.856627-230.243942-18.420326-88.004301 2.046669-182.148506 47.074099-228.197274 15.350272-21.489459 66.517709-82.887782 152.479027-99.260723 38.887219-8.18647 104.381645-7.163187 178.062746 44.002202 24.560333 20.466074 31.723827 56.281805 15.350272 84.934451-20.466995 28.652544-58.330931 34.792448-88.007987 15.349555-29.677158-21.489459-58.330931-29.67593-81.867981-24.559309-47.074099 8.18647-77.774541 54.235238-77.774541 54.235238-3.070054 4.093235-7.163494 7.163187-10.233446 10.233037-9.210163 9.209754-28.653773 64.468275-15.350272 125.866701 15.350272 61.398323 61.400986 107.447194 130.988646 133.029786 61.400986 18.419507 125.871923 13.302989 177.03936-18.419507 47.074099-26.605978 78.797926-67.538227 92.101427-117.68023 35.817267-138.146304-7.163494-251.733299-26.607104-285.502464-214.903296-347.92407-907.710669-282.432512-914.874163-281.409229-34.793882 4.093235-64.47104-19.44279-67.541094-53.211955-5.116723-33.769062 20.466995-63.444992 55.260877-66.514944 7.163494-1.023283 67.541094-6.139802 155.549082-6.139802C451.323597-64.502784 900.573901-23.570534 1086.823424 280.351334L1086.823424 280.351334zM337.731789 509.571994c21.490381 0 40.93399 9.209754 55.260877 24.559309 12.280218 14.326272 21.490381 33.769062 21.490381 54.235238 0 19.44279-9.210163 39.908966-21.490381 54.235238-14.326886 15.349555-33.770496 22.512742-55.260877 22.512742-20.466995 0-38.887219-7.163187-56.28416-22.512742-13.303501-14.326272-21.490381-34.792448-21.490381-54.235238 0-20.466074 8.186778-39.908966 21.490381-54.235238C298.844672 518.781747 317.264794 509.571994 337.731789 509.571994L337.731789 509.571994zM1141.061018 128.902042c-28.653773 0-54.237491-25.582694-54.237491-56.281805l0-15.349593c0-29.67593 25.583718-54.235238 54.237491-54.235238 29.677158 0 55.260877 24.559309 55.260877 54.235238l0 15.349593C1196.32169 103.319347 1170.738074 128.902042 1141.061018 128.902042L1141.061018 128.902042zM962.998272 27.594752c-25.583718 0-45.027328-19.44279-45.027328-44.002202l0-7.163143c0-25.582694 19.44361-45.025485 45.027328-45.025485 23.53705 0 42.980659 19.44279 42.980659 45.025485l0 7.163143C1005.978931 8.151962 986.535219 27.594752 962.998272 27.594752L962.998272 27.594752zM400.15616 407.241318c0 22.512742-17.396941 39.908966-38.887219 39.908966s-37.863936-17.396224-37.863936-39.908966l0-7.163143c0-19.44279 16.373555-37.862298 37.863936-37.862298s38.887219 18.419507 38.887219 37.862298L400.15616 407.24133zM264.05079 214.859776c34.793882 0 61.400986 27.629261 61.400986 63.444992l0 10.233062c0 34.792448-26.607104 61.398323-61.400986 61.398323-32.747213 0-59.354214-26.605978-59.354214-61.398323l0-10.233062C204.696371 242.489037 231.303578 214.859776 264.05079 214.859776L264.05079 214.859776zM450.300314 173.927526c32.747213 0 60.3776 24.559309 60.3776 59.351757l0 11.256368c0 34.792448-27.630387 61.398323-60.3776 61.398323-34.793882 0-60.3776-26.605978-60.3776-61.398323l0-11.256368C389.922611 198.486835 415.506432 173.927526 450.300314 173.927526L450.300314 173.927526zM725.58121 606.786048l0-3.069919c0-36.839014 27.630387-66.514944 66.517709-66.514944 36.84055 0 66.517709 29.67593 66.517709 66.514944l0 3.069919c0 35.815731-29.677158 65.491558-66.517709 65.491558C753.211597 672.277606 725.58121 642.601779 725.58121 606.786048L725.58121 606.786048zM1205.531955 292.63104c-23.53705 0-44.004045-20.466074-44.004045-45.025485l0-7.163143c0-24.559309 20.466995-45.025485 44.004045-45.025485 24.560333 0 44.004045 20.466074 44.004045 45.025485l0 7.163143C1249.535898 272.164864 1230.092288 292.63104 1205.531955 292.63104L1205.531955 292.63104zM639.619891 257.838592l0 5.116531c0 22.512742-17.396941 38.885683-39.910605 38.885683-20.466995 0-36.84055-16.372941-36.84055-38.885683l0-5.116531c0-22.512742 16.373555-40.93225 36.84055-40.93225C622.22295 216.906342 639.619891 235.32585 639.619891 257.838592L639.619891 257.838592zM955.834778 554.597376l0 12.279674c0 18.419507-14.326886 32.745779-33.770496 32.745779-17.396941 0-30.700442-14.326272-30.700442-32.745779l0-12.279674c0-18.419507 13.303501-32.745779 30.700442-32.745779C941.507891 521.851597 955.834778 536.177869 955.834778 554.597376z"  horiz-adv-x="1250" />

    
    <glyph glyph-name="dongyu" unicode="&#58927;" d="M755.801088 896c-161.68919 0-308.028109-95.167488-372.499046-245.593498-4.09344-14.326272-12.280218-34.792448-18.420326-55.258522-37.863936 23.536026-85.961318 42.978816-139.175526 42.978816-62.424269 0-117.685146-25.582694-165.782528-74.701312-7.163494-8.18647-42.980659-46.048768-54.237491-109.49376-18.420326-97.214054 11.256832-179.078554 84.937933-229.220557 22.513664-15.349555 73.681101-36.839014 110.521754-36.839014 0 0 0 0 7.163494 0l161.689166 0 10.233491 0c31.723827 0 57.307546 25.582694 57.307546 55.258522 0 31.722496-25.583718 57.30519-57.307546 57.30519l-10.233491 0 0 1.023306-168.852582-1.023283c-9.210163 0-38.887219 11.25632-47.074099 17.396224-13.303501 8.18647-54.237491 36.839014-37.863936 115.633562 6.140109 30.699213 23.53705 50.142003 23.53705 50.142003l1.023349 0c27.630387 27.629261 55.260877 39.908966 84.937933 39.908966 46.050714 0 90.054758-28.652544 112.568422-46.048768 0 0 0-1.023283 1.023386-1.023283l25.583718-18.419507c15.350272-11.25632 34.793882-14.326272 53.214106-8.18647 17.396941 7.163187 29.677158 21.489459 35.817267 39.908966 7.163494 32.745779 24.560333 93.120819 33.770496 115.633562 47.074099 108.470477 151.455642 179.078554 268.117504 179.078554 156.572467 0 284.491059-121.773466 284.491059-272.199475 0-65.491558-20.466995-123.820032-60.3776-165.775565-26.607104-28.652544-67.541094-39.908966-78.797926-44.002202l-140.198834 0-9.210142 0c-30.700442 0-56.28416-24.559309-56.28416-57.30519 0-29.67593 25.583718-55.258522 56.28416-55.258522l12.28019 0 142.245581 1.023283 9.210142 0c8.186778 2.046566 90.054758 17.396224 146.338918 79.817933 59.354214 62.421709 91.078042 148.379443 91.078042 241.500262C1152.86057 724.084531 974.797824 896 755.801088 896L755.801088 896zM301.434061 151.033037c-32.747213 0-61.400986-28.652544-61.400986-62.421709l0-63.444984c0-33.769062 28.653773-61.398323 61.400986-61.398323 34.793882 0 61.400986 27.629261 61.400986 61.398323l0 63.444984C362.835046 122.380493 336.227942 151.033037 301.434061 151.033037L301.434061 151.033037zM815.155302 151.033037c-33.770496 0-60.3776-28.652544-60.3776-62.421709l0-63.444984c0-33.769062 26.607104-61.398323 60.3776-61.398323s61.400986 27.629261 61.400986 61.398323l0 63.444984C876.556288 122.380493 848.925901 151.033037 815.155302 151.033037L815.155302 151.033037zM591.041843 296.342528l-53.214156 0c-24.560333 0-44.004045-24.559309-44.004045-54.235238l0-237.407038c0-29.67593 19.44361-54.235238 44.004045-54.235238l53.214156 0c25.583718 0 45.027328 24.559309 45.027328 54.235238L636.069171 242.107339C636.069274 271.783219 616.625562 296.342528 591.041843 296.342528z"  horiz-adv-x="1154" />

    
    <glyph glyph-name="fuchen" unicode="&#58928;" d="M1047.259599 611.520887c11.256831 32.745778-7.163494 66.514941-36.840549 75.724694-32.747211 12.279705-64.471037-6.139801-75.727868-37.862296-149.408966-445.138206-865.753355-440.021688-873.940132-440.021688 0 0 0 0-1.023386 0-32.747211 0-59.354212-26.605976-59.354212-59.351754-1.023386-32.745778 24.560332-60.375037 59.354212-60.375037 0 0 3.070054 0 7.163494 0 38.887217 0 216.950057 2.046566 414.456403 57.305188C778.118825 229.82767 974.601785 389.463426 1047.259599 611.520887L1047.259599 611.520887zM459.857182 585.938194c45.027326 0 77.774537 33.769061 77.774537 76.747977l0 21.489429c0 42.978814-32.747211 77.77126-77.774537 77.77126-39.910603 0-74.704483-34.792446-74.704483-77.77126l0-21.489429C385.152699 619.707255 419.946579 585.938194 459.857182 585.938194L459.857182 585.938194zM869.196862 216.524682c-40.933988 0-75.727868-34.792446-75.727868-76.747977l0-23.536041c0-41.955531 34.79388-76.747977 75.727868-76.747977 41.957272 0 77.774537 34.792446 77.774537 76.747977l0 23.536041C946.971399 181.732235 911.154134 216.524682 869.196862 216.524682L869.196862 216.524682zM1023.722551 362.857449c-32.747211 0-60.377597-29.675928-60.377597-61.39832l0-10.233062c0-33.769061 27.630386-60.375037 60.377597-60.375037 33.770494 0 59.354212 26.605976 59.354212 60.375037l0 10.233062C1083.076865 333.181521 1057.493148 362.857449 1023.722551 362.857449L1023.722551 362.857449zM651.223522 111.124162c-24.560332 0-49.120766-22.512741-49.120766-49.118718l0-12.279674c0-27.62926 24.560332-49.118718 49.120766-49.118718 27.630386 0 50.144151 21.489458 50.144151 49.118718l0 12.279674C701.367571 88.61142 678.853908 111.124162 651.223522 111.124162L651.223522 111.124162zM608.242864 807.995656c21.49038 0 37.863934 16.37294 37.863934 37.862296L646.106799 857.114319c0 22.512741-16.373554 38.885681-37.863934 38.885681-20.466994 0-37.863934-16.37294-37.863934-38.885681l0-11.256368C570.37893 824.368493 587.77587 807.995656 608.242864 807.995656L608.242864 807.995656zM289.981222 614.590737c20.466994 0 38.887217 16.37294 38.887217 36.839013l0 12.279674c0 20.466073-18.420326 38.885681-38.887217 38.885681-21.49038 0-38.887217-18.419506-38.887217-38.885681l0-12.279674C251.094004 630.963677 268.490944 614.590737 289.981222 614.590737L289.981222 614.590737zM271.560999 414.022733c32.747211 0 58.330928 27.62926 58.330928 60.375037l0 13.30298c0 32.745778-25.583717 60.375037-58.330928 60.375037s-59.354212-27.62926-59.354212-60.375037l0-13.30298C212.206787 441.651993 238.813787 414.022733 271.560999 414.022733L271.560999 414.022733zM613.359587 552.169133l0-14.326286c0-18.419506 17.39694-37.862296 37.863934-37.862296 22.513663 0 38.887217 19.442789 38.887217 37.862296l0 14.326286c0 19.442789-16.373554 37.862296-38.887217 37.862296C630.756527 590.031429 613.359587 571.611923 613.359587 552.169133L613.359587 552.169133zM432.226796 362.857449c31.723826 0 59.354212 24.559308 59.354212 58.328471l0 13.30298c0 30.699211-27.630386 59.351754-59.354212 59.351754-33.770494 0-61.400983-28.652543-61.400983-59.351754l0-13.30298C370.825813 387.416757 398.456301 362.857449 432.226796 362.857449L432.226796 362.857449zM767.885276 621.753924c41.957272 0 75.727868 33.769061 75.727868 77.77126l0 22.512735c0 41.955531-33.770494 75.724694-75.727868 75.724694-44.004043 0-76.751152-33.769061-76.751152-75.724694l0-22.512735C691.134125 655.522984 723.881336 621.753924 767.885276 621.753924z"  horiz-adv-x="1084" />

    
    <glyph glyph-name="yujiaxue" unicode="&#58929;" d="M861.984971-29.794255l-39.89777 23.528456 36.828703 24.551411c12.276268 9.206792 17.391346 28.643329 7.161191 41.94204-8.184145 14.321665-26.598547 17.390629-41.94378 8.183838l-23.52948-15.344619 0 29.666336c0 17.390629-14.322279 29.666386-31.713625 29.666386-15.345335 0-29.667614-12.275756-29.667614-29.666386l0-35.804199-28.644558 18.413584c-14.322279 9.206792-32.736681 4.091919-41.94378-9.206792s-5.115078-33.758202 9.207201-42.964994l33.759636-20.459492-39.89777-26.597421c-13.299222-9.206792-18.414402-28.643329-8.184145-41.94204 6.138134-9.206792 15.345335-14.321665 25.575491-14.321665 5.115078 0 11.253212 3.068965 17.391346 6.137827l32.736681 23.528456 0-36.827176c0-16.367675 14.322279-30.68934 29.667614-30.68934 17.391346 0 31.713625 14.321665 31.713625 30.68934l0 33.758245 28.644558-18.413584c4.092124-3.068965 10.230155-4.091919 15.345335-4.091919 11.253212 0 21.48347 4.091919 25.575491 13.298711C879.376317-58.437687 875.284194-39.001047 861.984971-29.794255L861.984971-29.794255zM984.747348 685.266743c-12.276268 0-22.506424-3.068965-34.782692-4.091919-40.920826 120.71135-171.867347 214.825176-314.067182 214.825176l-2.04604 0c-217.903251-1.022954-318.159203-142.193795-351.918941-255.744261-12.276268 1.022954-24.552434 2.045908-35.805748 2.045908-87.979684 0-167.775326-42.964994-213.81123-117.642385 0 0 0 0 0-2.045908-33.759636-61.378578-68.542328-203.572476 53.196992-295.640393 36.828703-28.643329 94.117818-31.712294 116.624242-31.712294 1.023056 0 1.023056 0 1.023056 0l814.323955 0c3.069067 0 6.138134 0 11.253212 1.022954 71.611395 13.298711 208.69605 83.88408 208.69605 245.514516C1237.433291 575.808196 1124.90107 685.266743 984.747348 685.266743L984.747348 685.266743zM1010.322838 305.742168l-807.162815 0-1.02302 0c-21.48347 0-43.989893 5.114873-50.128027 8.183838-71.611395 56.263705-29.667614 141.170841-22.506424 154.469552 34.782692 57.286761 93.094864 62.401634 116.624242 62.401634 21.48347 0 37.851759-5.114873 41.94378-8.183838 17.391346-12.275756 39.89777-15.344619 56.266059-7.160884 19.437357 7.160884 32.736681 24.551411 34.782692 46.033959 0 8.183838 21.48347 221.986059 255.75501 223.009013l1.02302 0c117.647298 0 211.765117-92.067918 213.81123-171.860181 0-18.413584 9.207201-34.781259 22.506424-45.011005 15.345335-10.229746 33.759636-12.275756 51.150982-6.137827 21.48347 7.160884 41.94378 11.2527 61.381239 11.2527 89.002741 0 141.176779-66.493553 141.176779-130.941095C1125.924126 341.546381 1035.898329 311.880097 1010.322838 305.742168L1010.322838 305.742168zM479.375462 104.215703c-33.759636 0-60.358183-26.597421-60.358183-60.355624l0-102.297711c0-34.781259 26.598547-61.378578 60.358183-61.378578s61.381239 26.597421 61.381239 61.378578l0 102.297711C540.756701 77.618281 513.135097 104.215703 479.375462 104.215703z"  horiz-adv-x="1238" />

    
    <glyph glyph-name="daxue" unicode="&#58930;" d="M1168.961931 609.474179c-44.00404 42.978812-100.288195 67.53822-160.665789 71.631455-19.443608 3.069952-39.910601 1.023283-59.354208-2.046566-36.840547 121.773453-168.852566 216.940932-313.144801 216.940932l-1.023349 0c-220.019997-1.023283-320.308294-144.286194-352.032118-257.873177-12.280216 2.046566-25.583716 3.069952-37.863932 3.069952-85.96131 0-165.782511-44.002197-212.856606-115.63355 0-1.023283 0-1.023283-1.023385-3.069952-32.74721-60.375034-66.517702-202.614559 55.260871-293.688803 35.817264-29.675927 92.101418-32.745776 113.591694-32.745776l1.023349 0 2.046698 0c0 0 0 0 202.623161 0 29.677155 0 53.2141 23.536023 53.2141 52.188564 0 31.722493-23.537047 54.235233-53.2141 54.235233l-202.623111 0-4.093396 0c-22.513662 0-42.980655 5.116518-48.097378 9.209753-74.704479 57.305185-32.74721 145.309477-24.56033 158.612464 35.817264 59.351751 95.171472 65.491552 118.708519 65.491552 22.513662 0 37.863932-6.139801 42.980655-9.209753 15.35027-11.256319 35.817264-16.372939 54.237486-7.163186 17.396939 7.163186 30.700439 23.536023 31.723824 44.002197 0 9.209753 23.537047 225.127299 260.953984 226.150685l1.023349 0c120.755188 0 215.92666-95.167478 218.996714-177.031969 1.023385-15.349554 9.210162-31.722493 22.513662-39.908962 13.303499-9.209753 31.723824-12.279704 47.074094-6.139801 22.513662 7.163186 42.980655 10.233036 64.471034 10.233036 5.116723 0 12.280216-1.023283 19.443608-1.023283 31.723824-3.069952 62.424263-17.396222 83.914641-40.932246 25.583716-24.559306 39.910601-57.305185 39.910601-91.074244 0-105.400514-94.148087-136.099724-118.708519-141.216242l-5.116745 0 0-1.023306c-2.046669 0-2.046669 0-2.046669 0l0 1.023306-6.140094 0-201.599762 0-6.140094 0 0-1.023306c-26.607101-3.069952-46.050709-24.559306-46.050709-53.21195 0-25.582692 19.443608-48.095432 46.050709-51.165281l0-1.023306 6.140094 0 201.599762 0 6.140094 0 0 1.023306c0 0 0 0 2.046669 0l0-1.023306 12.280189 0c3.070054 0 6.140108 1.023283 10.233445 1.023283 72.65781 13.302987 207.739883 83.911057 207.739883 246.616756C1238.549687 504.073665 1211.942586 566.495367 1168.961931 609.474179L1168.961931 609.474179zM512.995174 220.617898c6.140108-9.209753 15.35027-13.302987 26.607101-13.302987 6.140108 0 11.256831 1.023283 17.396939 6.139801l19.443608 11.256319 0-18.41951c0-17.396222 12.280216-30.69921 29.677155-30.69921s30.700439 13.302987 30.700439 30.69921l0 17.396204 16.373554-9.209753c6.140108-4.093235 10.233445-5.116518 16.373554-5.116518 10.233445 0 19.443608 6.139801 26.607101 14.326271 8.186777 15.349554 4.09344 32.745776-11.256831 41.955529l-24.56033 17.396222 23.537047 15.349554c15.35027 9.209753 17.396939 28.652541 8.186777 41.955529-9.210162 15.349554-28.65377 18.419505-41.957269 9.209753l-13.303499-8.18647 0 15.349591c0 17.396222-13.303499 29.675927-30.700439 29.675927s-29.677155-12.279704-29.677155-29.675927l0-20.466122-16.373554 10.233036c-13.303499 10.233036-34.793878 4.093235-44.00404-9.209753-6.140108-14.326271-3.070054-34.792445 11.256831-42.978812l21.490379-13.302987-27.630384-18.419505C508.901837 254.386957 503.785114 235.967452 512.995174 220.617898L512.995174 220.617898zM701.29145-18.835774l-38.887215 26.605975 37.863932 23.536023c13.303499 9.209753 16.373554 30.69921 8.186777 44.002197-9.210162 13.302987-29.677155 18.419505-44.00404 8.18647l-24.56033-16.372939 0 29.675877c0 17.396222-13.303499 31.722493-31.723824 31.722493-15.35027 0-29.677155-14.326271-29.677155-31.722493l0-34.792407-29.677155 19.442788c-14.326885 7.163186-33.770493 4.093235-41.957269-9.209753-8.186777-15.349554-5.116723-35.815728 9.210162-44.002197l33.770493-21.489457-39.910601-28.652541c-14.326885-9.209753-17.396939-26.605975-8.186777-40.932246 5.116723-9.209753 14.326885-13.302987 23.537047-13.302987 8.186777 0 14.326885 1.023283 18.420325 6.139801l34.793878 21.489457 0-36.839019c0-17.396222 14.326885-30.69921 29.677155-30.69921 18.420325 0 31.723824 13.302987 31.723824 30.69921l0 34.792407 28.65377-18.419505c5.116723-3.069952 11.256831-5.116518 15.35027-5.116518 12.280216 0 22.513662 5.116518 27.630384 14.326271C720.735058-46.465032 716.641618-27.022244 701.29145-18.835774L701.29145-18.835774zM946.895163 15.95667l-25.583716 15.349554 23.537047 15.349554c10.233445 8.18647 13.303499 25.582692 7.163494 35.815728-8.186777 12.279704-24.56033 14.326271-35.817264 6.139801l-13.303499-7.163186 0 14.326285c0 16.372939-12.280216 26.605975-25.583716 26.605975-14.326885 0-25.583716-10.233036-25.583716-26.605975l0-18.41951-16.373554 10.233036c-11.256831 7.163186-28.65377 4.093235-35.817264-8.18647-6.140108-12.279704-3.070054-29.675927 8.186777-35.815728l21.490379-13.302987-25.583716-18.419505c-11.256831-6.139801-15.35027-22.51274-7.163494-34.792445 5.116723-7.163186 12.280216-11.256319 21.490379-11.256319 5.116723 0 11.256831 2.046566 14.326885 4.093235l19.443608 14.326271 0-21.489428c0-13.302987 11.256831-25.582692 25.583716-25.582692 13.303499 0 25.583716 12.279704 25.583716 25.582692l0 19.442816 16.373554-10.233036c2.046669-3.069952 8.186777-3.069952 11.256831-3.069952 11.256831 0 18.420325 3.069952 23.537047 10.233036C962.245433-7.579353 957.128711 7.770201 946.895163 15.95667L946.895163 15.95667zM399.40348 15.95667l-25.583716 15.349554 24.56033 15.349554c11.256831 8.18647 16.373554 25.582692 7.163494 35.815728-8.186777 12.279704-24.56033 14.326271-36.840547 6.139801l-14.326885-7.163186 0 14.326285c0 16.372939-11.256831 26.605975-24.56033 26.605975-14.326885 0-26.607101-10.233036-26.607101-26.605975l0-18.41951-15.35027 10.233036c-11.256831 7.163186-26.607101 4.093235-33.770493-8.18647-8.186777-12.279704-5.116723-29.675927 7.163494-35.815728l20.466993-13.302987-25.583716-18.419505c-11.256831-6.139801-15.35027-22.51274-6.140108-34.792445 5.116723-7.163186 13.303499-11.256319 20.466993-11.256319 5.116723 0 9.210162 2.046566 13.303499 4.093235l19.443608 14.326271 0-21.489428c0-13.302987 12.280216-25.582692 26.607101-25.582692 13.303499 0 24.56033 12.279704 24.56033 25.582692l0 19.442816 17.396939-10.233036c4.09344-3.069952 9.210162-3.069952 13.303499-3.069952 9.210162 0 17.396939 3.069952 22.513662 10.233036C415.777034-7.579353 412.70698 7.770201 399.40348 15.95667z"  horiz-adv-x="1239" />

    
    <glyph glyph-name="zhongxue" unicode="&#58931;" d="M717.865062-3.486106l-39.910605 23.536026 36.84055 25.582694c13.303501 8.18647 18.420326 28.652544 7.163494 45.025485-9.210163 12.279706-28.653773 15.349555-41.957274 6.139802l-24.560333-17.396224 0 31.722492c0 15.349555-14.326886 30.699213-31.723827 30.699213s-31.723827-15.349555-31.723827-30.699213l0-36.839023-27.630387 19.44279c-16.373555 9.209754-33.770496 4.093235-42.980659-9.209754-10.233446-15.349555-6.140109-34.792448 9.210163-44.002202l34.793882-21.489459-41.957274-27.629261c-13.303501-9.209754-18.420326-27.629261-8.186778-41.955533 6.140109-9.209754 16.373555-13.302989 25.583718-13.302989 6.140109 0 11.256832 1.023283 17.396941 5.116518l33.770496 22.512742 0-36.839023c0-16.372941 14.326886-30.699213 31.723827-30.699213s31.723827 14.326272 31.723827 30.699213l0 35.815717 28.653773-19.44279c6.140109-3.069952 12.280218-4.093235 16.373555-4.093235 10.233446 0 19.44361 4.093235 25.583718 14.326272C736.285389-31.115366 733.215334-13.719245 717.865062-3.486106L717.865062-3.486106zM962.445517 28.23639l-24.560333 17.396224 23.53705 13.302989c11.256832 9.209754 13.303501 25.582694 5.116723 36.839014-6.140109 11.25632-23.53705 15.349555-34.793882 7.163187l-13.303501-8.18647 0 16.372899c0 13.302989-12.280218 24.559309-26.607104 24.559309-13.303501 0-24.560333-11.25632-24.560333-24.559309l0-19.442818-16.373555 10.233037c-11.256832 5.116518-27.630387 3.069952-36.84055-8.18647-6.140109-12.279706-3.070054-28.652544 9.210163-36.839014l20.466995-12.279706-24.560333-18.419507c-12.280218-8.18647-16.373555-23.536026-8.186778-35.815731 4.09344-7.163187 13.303501-10.233037 22.513664-10.233037 4.09344 0 9.210163 1.023283 12.280218 3.069952l21.490381 14.326272 0-22.512736c0-12.279706 11.256832-24.559309 24.560333-24.559309 14.326886 0 26.607104 12.279706 26.607104 24.559309l0 21.48943 15.350272-12.279706c5.116723-2.046566 9.210163-3.069952 14.326886-3.069952 8.186778 0 17.396941 3.069952 21.490381 11.25632C976.772403 5.723648 973.702349 20.04992 962.445517 28.23639L962.445517 28.23639zM413.930394 28.23639l-24.560333 17.396224 22.513664 13.302989c12.280218 9.209754 15.350272 25.582694 6.140109 36.839014-7.163494 11.25632-23.53705 15.349555-35.817267 7.163187l-13.303501-8.18647 0 16.372899c0 13.302989-11.256832 24.559309-24.560333 24.559309-15.350272 0-27.630387-11.25632-27.630387-24.559309l0-19.442818-14.326886 10.233037c-12.280218 5.116518-28.653773 3.069952-35.817267-8.18647-8.186778-12.279706-4.09344-28.652544 7.163494-36.839014l21.490381-12.279706-25.583718-18.419507c-11.256832-8.18647-15.350272-23.536026-7.163494-35.815731 5.116723-7.163187 12.280218-10.233037 20.466995-10.233037 5.116723 0 11.256832 1.023283 14.326886 3.069952l19.44361 14.326272 0-22.512736c0-12.279706 12.280218-24.559309 27.630387-24.559309 13.303501 0 24.560333 12.279706 24.560333 24.559309l0 21.48943 16.373555-12.279706c5.116723-2.046566 9.210163-3.069952 14.326886-3.069952 8.186778 0 16.373555 3.069952 21.490381 11.25632C429.280666 5.723648 426.210611 20.04992 413.930394 28.23639L413.930394 28.23639zM984.959181 685.19895c-11.256832 0-22.513664-1.023283-35.817267-3.069952-38.887219 119.726797-169.875968 213.871002-313.144832 213.871002l-2.046698 0c-218.996736-1.023283-319.284941-141.216256-353.055437-254.803251-11.256832 1.023283-22.513664 2.046566-34.793882 2.046566-86.984704 0-165.782528-42.978816-212.856627-117.68023l-1.023386-1.023283c-33.770496-63.444992-68.564378-205.684531 54.237491-298.805453 38.887219-29.67593 94.148096-31.722496 115.638477-31.722496l1.023349 0 814.585923 0 10.233491 0c72.657818 13.302989 209.786573 85.957734 209.786573 249.686733C1237.726413 576.728474 1125.158093 685.19895 984.959181 685.19895L984.959181 685.19895zM1010.543002 307.59895l-807.422479 0c0 0 0 0-1.023386 0-20.466995 0-41.957274 5.116518-48.097382 9.209754-30.700442 22.512742-42.980659 52.18857-39.910605 92.097536 2.046669 30.699213 16.373555 55.258522 17.396941 59.351757 34.793882 57.30519 93.124813 63.444992 114.615091 63.444992 22.513664 0 36.84055-6.139802 41.957274-10.233037 16.373555-12.279706 37.863936-14.326272 58.330931-8.18647 16.373555 8.18647 30.700442 27.629261 32.747213 46.048768 2.046669 24.559309 28.653773 223.080755 254.813901 224.104038l2.046698 0c117.685146 0 209.786573-93.120819 213.880013-170.892186 0-19.44279 8.186778-34.792448 23.53705-45.025485 14.326886-11.25632 32.747213-12.279706 50.144154-8.18647 20.466995 8.18647 41.957274 12.279706 61.400986 12.279706 86.984704 0 140.19881-67.538227 140.19881-127.913267C1125.158093 342.391296 1033.056666 312.715469 1010.543002 307.59895z"  horiz-adv-x="1239" />

    
    <glyph glyph-name="xiaoxue" unicode="&#58932;" d="M718.888448-8.602726l-38.887219 25.582694 36.84055 23.536026c13.303501 9.209754 18.420326 29.67593 8.186778 44.002202-9.210163 15.349555-28.653773 18.419507-42.980659 9.209754l-25.583718-17.396224 0 30.699186c0 17.396224-13.303501 31.722496-30.700442 31.722496-16.373555 0-29.677158-14.326272-29.677158-31.722496l0-34.792411-29.677158 18.419507c-14.326886 9.209754-33.770496 4.093235-42.980659-11.25632-9.210163-13.302989-4.09344-33.769062 9.210163-42.978816l34.793882-20.466074-39.910605-27.629261c-14.326886-9.209754-18.420326-28.652544-8.186778-42.978816 5.116723-9.209754 14.326886-13.302989 25.583718-13.302989 5.116723 0 11.256832 2.046566 16.373555 5.116518l34.793882 23.536026 0-36.839023c0-17.396224 13.303501-30.699213 29.677158-30.699213 17.396941 0 30.700442 13.302989 30.700442 30.699213l0 34.792411 30.700442-18.419507c4.09344-4.093235 10.233446-5.116518 15.350272-5.116518 10.233446 0 21.490381 5.116518 26.607104 14.326272C739.355443-37.25527 734.23872-17.81248 718.888448-8.602726L718.888448-8.602726zM984.959181 685.19895c-12.280218 0-23.53705-1.023283-35.817267-3.069952-39.910605 120.750182-169.875968 213.871002-314.168218 213.871002l-1.023349 0c-217.97335-1.023283-318.261555-141.216256-352.032154-254.803251-12.280218 2.046566-23.53705 3.069952-35.817267 3.069952-86.984704 0-165.782528-44.002202-212.856627-118.703514l-1.023386-1.023283c-33.770496-62.421709-68.564378-204.661248 54.237491-297.782067 37.863936-29.67593 94.148096-31.722496 115.638477-31.722496l3.070047 0 811.515876 0c4.09344 0 7.163494 0 11.256832 1.023283 72.657818 13.302989 209.786573 83.911066 209.786573 247.640064C1237.726413 576.728474 1125.158093 685.19895 984.959181 685.19895L984.959181 685.19895zM1010.543002 307.59895l-805.375781 0c-2.046669 0-2.046669 0-2.046669 0l-1.023349 0c-20.466995 0-40.93399 4.093235-47.074099 9.209754-30.700442 23.536026-42.980659 52.18857-39.910605 91.074253 2.046669 31.722496 15.350272 56.281805 16.373555 60.37504 36.84055 57.30519 91.078042 62.421709 114.615091 62.421709 21.490381 0 37.863936-5.116518 41.957274-9.209754 16.373555-12.279706 37.863936-14.326272 58.330931-6.139802 17.396941 7.163187 31.723827 25.582694 32.747213 47.072051 1.023386 7.163187 21.490381 220.010803 254.813901 221.034189l1.023349 0c118.708531 0 210.809958-93.120819 213.880013-170.892186 0-18.419507 9.210163-34.792448 23.53705-45.025485 15.350272-10.233037 33.770496-12.279706 51.167437-7.163187 20.466995 7.163187 40.93399 12.279706 61.400986 12.279706 84.937933 0 140.19881-66.514944 140.19881-128.93655C1125.158093 342.391296 1033.056666 312.715469 1010.543002 307.59895z"  horiz-adv-x="1239" />

    
    <glyph glyph-name="dayu" unicode="&#58933;" d="M242.07913 122.380493c-33.770496 0-62.424269-27.629261-62.424269-62.421709l0-61.398372c0-34.792448 28.653773-61.398323 62.424269-61.398323 32.747213 0 60.3776 26.605978 60.3776 61.398323l0 61.398372C302.45673 94.751232 274.826342 122.380493 242.07913 122.380493L242.07913 122.380493zM474.379469 122.380493c-35.817267 0-62.424269-27.629261-62.424269-62.421709l0-61.398372c0-34.792448 26.607104-61.398323 62.424269-61.398323 32.747213 0 59.354214 26.605978 59.354214 61.398323l0 61.398372C533.733683 94.751232 507.126579 122.380493 474.379469 122.380493L474.379469 122.380493zM698.492928 122.380493c-34.793882 0-62.424269-27.629261-62.424269-62.421709l0-61.398372c0-34.792448 27.630387-61.398323 62.424269-61.398323 32.747213 0 62.424269 26.605978 62.424269 61.398323l0 61.398372C760.917197 94.751232 731.240038 122.380493 698.492928 122.380493L698.492928 122.380493zM754.777088 896c-161.68919 0-308.028109-98.23744-370.452378-245.593498-7.163494-14.326272-12.280218-33.769062-19.44361-53.211955-38.887219 20.466074-85.961318 39.908966-140.19881 39.908966-61.400986 0-115.638477-24.559309-162.712474-73.678029-9.210163-8.18647-45.027328-46.048768-56.28416-108.470477-18.420326-97.214054 11.256832-180.101939 84.937933-230.243942 19.44361-13.302989 72.657818-35.815731 111.545037-35.815731l700.994168 0c5.116723 0 8.186778 0 12.280218 3.069952 8.186778 1.023283 89.031373 16.372941 145.315533 78.794547 58.330931 63.444992 90.054758 149.402726 90.054758 240.476979C1150.813184 724.084531 973.773824 896 754.777088 896L754.777088 896zM977.867162 346.484531c-24.560333-28.652544-66.517709-39.908966-78.797926-42.978816l-696.900771 0c-11.256832 0-40.93399 10.233037-49.120768 14.326272-12.280218 9.209754-52.190822 35.815731-36.84055 115.633562 6.140109 30.699213 24.560333 49.11872 22.513664 49.11872 2.046669 0 2.046669 1.023283 2.046669 1.023283 25.583718 27.629261 55.260877 41.955533 83.91465 41.955533 46.050714 0 89.031373-29.67593 112.568422-47.072051 1.023386 0 1.023386-3.069952 3.070054-3.069952l24.560333-18.419507c16.373555-10.233037 34.793882-12.279706 52.190822-5.116518 18.420326 5.116518 30.700442 19.44279 33.770496 36.839014 8.186778 32.745779 26.607104 94.144205 35.817267 117.68023 46.050714 106.423808 152.479027 177.031987 268.117504 177.031987 156.572467 0 283.467674-121.773466 283.467674-272.199475C1038.244762 447.791923 1017.777869 388.440166 977.867162 346.484531L977.867162 346.484531zM910.32617 122.380493c-35.817267 0-63.447654-27.629261-63.447654-62.421709l0-61.398372c0-34.792448 27.630387-61.398323 63.447654-61.398323 32.747213 0 60.3776 26.605978 60.3776 61.398323l0 61.398372C970.70377 94.751232 943.073382 122.380493 910.32617 122.380493z"  horiz-adv-x="1151" />

    
    <glyph glyph-name="fujian" unicode="&#58946;" d="M681.4766 576.6172l-63.4297 63.4004L300.8496 322.8867c-52.5527-52.5313-52.5527-137.7422 0-190.2773 52.543-52.5313 137.7539-52.5313 190.3066 0l380.6367 380.5742c87.6113 87.5605 87.6113 229.5527 0 317.1152-87.5645 87.6016-229.6016 87.6016-317.1699 0L154.9512 430.7422l0.0332-0.0313c-0.2832-0.2969-0.5977-0.5625-0.8555-0.8262-122.1699-122.1641-122.1699-320.1719 0-442.291 122.123-122.125 320.1836-122.125 442.3711 0 0.2676 0.2676 0.5039 0.5547 0.8008 0.8555l0.0313-0.0332 272.7852 272.7461-63.4629 63.3984L533.8867 51.8437l-0.0156 0c-0.2891-0.2617-0.5508-0.5566-0.8262-0.8242-86.9863-86.9707-228.4961-86.9707-315.5039 0-86.9746 86.9551-86.9746 228.4395 0 315.4082 0.2969 0.2969 0.5898 0.5684 0.8672 0.8262l-0.0449 0.0586 399.6875 399.5762c52.4531 52.4785 137.8359 52.4785 190.3184 0 52.4531-52.4746 52.4531-137.8398 0-190.2734L427.7324 196.0488c-17.5156-17.502-45.9512-17.502-63.4492 0-17.4746 17.4668-17.4746 45.9297 0 63.3984L681.4766 576.6172z"  horiz-adv-x="1000" />

    
    <glyph glyph-name="weixin" unicode="&#59004;" d="M346.6332 71.4191 98.4573-12.3651l122.7138 142.6413C106.5721 204.7247 32.5073 321.5125 32.5073 452.3888c0 223.9971 216.8099 406.6713 482.6506 406.6713 265.8397 0 482.6486-182.6741 482.6486-406.6713 0-223.9821-216.8089-406.6563-482.6486-406.6563C455.9256 45.7325 399.1457 54.8413 346.6332 71.4191L346.6332 71.4191zM297.9972 520.5066c-32.7312 0-59.2692-26.537-59.2692-59.2668 0-32.7308 26.5381-59.2678 59.2692-59.2678 32.7321 0 59.2702 26.537 59.2702 59.2678C357.2674 493.9696 330.7293 520.5066 297.9972 520.5066L297.9972 520.5066zM732.3165 520.5066c-32.7312 0-59.2613-26.537-59.2613-59.2668 0-32.7308 26.5301-59.2678 59.2613-59.2678 32.7391 0 59.2692 26.537 59.2692 59.2678C791.5848 493.9696 765.0547 520.5066 732.3165 520.5066L732.3165 520.5066zM515.1578 520.5066c-32.7331 0-59.2632-26.537-59.2632-59.2668 0-32.7308 26.5301-59.2678 59.2632-59.2678 32.7312 0 59.2692 26.537 59.2692 59.2678C574.4261 493.9696 547.889 520.5066 515.1578 520.5066z"  horiz-adv-x="1000" />

    
    <glyph glyph-name="fanhui" unicode="&#58934;" d="M624.788992 691.952026 585.205965 731.535974 219.560038 365.814989 585.205965 0.135987 624.788992 39.719014 298.663014 365.83895Z"  horiz-adv-x="1024" />

    
    <glyph glyph-name="duochuangkou" unicode="&#58998;" d="M291.5484 634.1318c-51.2588 0-92.8042-41.5455-92.8042-92.8133l0-371.2486c0-51.2407 41.5455-92.8088 92.8042-92.8088l371.253121 0c51.2633 0 92.8042 41.5681 92.8042 92.8088L755.605721 541.320759c0 51.2678-41.5409 92.8133-92.8042 92.8133L291.5484 634.1318 291.5484 634.1318zM681.3624 541.3208l0-371.2486c0-10.231-8.3005-18.5608-18.5608-18.5608L291.548397 151.5114c-10.2513 0-18.5563 8.3299-18.5563 18.5608L272.992097 541.320759c0 10.2558 8.305 18.5835 18.5563 18.5835l371.253121 0C673.0619 559.902 681.3624 551.5766 681.3624 541.3208zM829.5734 247.695 829.5734 624.852486c0 46.1456-51.0124 83.5272-97.1625 83.5272L384.359417 708.379686c-36.3215 0-39.4816-4.0757-39.4816-36.4368l331.8438-0.7595c90.0894 0 115.6487-55.8679 115.6487-102.0225l0-363.049819C824.7518 206.1111 829.5734 211.3667 829.5734 247.695z"  horiz-adv-x="1024" />

    
    <glyph glyph-name="xiangyou" unicode="&#58935;" d="M399.211 39.72 438.794 0.136 804.44 365.857 438.794 731.536 399.211 691.953 725.337 365.833Z"  horiz-adv-x="1024" />

    
    <glyph glyph-name="wenjian" unicode="&#59034;" d="M800.350208 769.060864c17.676288-16.16384 31.751168-29.581312 42.22464-40.251392 10.473472-10.668032 18.490368-19.716096 24.059904-27.155456 5.567488-7.43424 8.999936-13.744128 10.308608-18.915328 1.31072-5.173248 1.965056-9.7024 1.965056-13.577216l0-15.520768L733.574144 653.640704c-6.546432 0-12.273664 2.425856-17.181696 7.273472-4.913152 4.849664-9.007104 10.510336-12.275712 16.971776-3.272704 6.470656-5.72928 13.099008-7.364608 19.889152-1.637376 6.784-2.45248 12.122112-2.45248 16.001024L694.299648 834.048l2.941952 0c5.235712 0 10.642432-0.809984 16.200704-2.423808 5.569536-1.615872 11.951104-4.687872 19.150848-9.217024 7.202816-4.523008 16.202752-10.993664 27.004928-19.39968C770.40128 794.602496 783.985664 783.28832 800.350208 769.060864L800.350208 769.060864zM632.430592 712.808448c0-12.934144 1.965056-26.351616 5.890048-40.251392 3.929088-13.904896 10.148864-26.83392 18.659328-38.796288 8.510464-11.963392 19.313664-21.824512 32.407552-29.587456 13.089792-7.7568 28.478464-11.634688 46.15168-11.634688l143.369216 0 0-547.037184c0-18.75456-3.762176-35.566592-11.2896-50.43712-7.529472-14.872576-17.511424-27.48416-29.956096-37.825536-12.435456-10.349568-26.182656-18.429952-41.239552-24.24832-15.054848-5.820416-29.787136-8.7296-44.189696-8.7296L269.09184-75.739136c-12.438528 0-26.021888 3.557376-40.75008 10.665984-14.732288 7.113728-28.478464 16.488448-41.247744 28.132352-12.763136 11.634688-23.40352 24.891392-31.913984 39.76192-8.510464 14.874624-12.765184 30.391296-12.765184 46.559232L142.414848 708.928512c0 13.577216 3.11296 27.644928 9.331712 42.192896 6.218752 14.550016 14.732288 27.96544 25.52832 40.251392 10.802176 12.285952 23.07584 22.467584 36.822016 30.55104 13.755392 8.08448 28.153856 12.12416 43.214848 12.12416l375.117824 0L632.429568 712.808448 632.430592 712.808448zM694.299648 107.577344c17.012736 0 31.418368 5.981184 43.201536 17.944576 11.782144 11.957248 17.676288 26.344448 17.676288 43.158528 0 16.81408-5.894144 31.038464-17.676288 42.6752-11.784192 11.640832-26.1888 17.461248-43.201536 17.461248L326.050816 228.816896c-17.021952 0-31.42656-5.820416-43.2128-17.461248-11.779072-11.636736-17.673216-25.862144-17.673216-42.6752 0-16.81408 5.894144-31.20128 17.673216-43.158528 11.78624-11.963392 26.190848-17.944576 43.2128-17.944576L694.299648 107.577344 694.299648 107.577344zM755.177472 410.189824c0 16.81408-5.894144 31.20128-17.676288 43.162624-11.784192 11.963392-26.1888 17.946624-43.201536 17.946624L326.050816 471.299072c-17.021952 0-31.42656-5.983232-43.2128-17.946624-11.779072-11.961344-17.673216-26.349568-17.673216-43.162624 0-16.806912 5.894144-31.034368 17.673216-42.6752 11.78624-11.636736 26.190848-17.457152 43.2128-17.457152l368.248832 0c17.012736 0 31.418368 5.820416 43.201536 17.457152C749.283328 379.154432 755.177472 393.381888 755.177472 410.189824L755.177472 410.189824zM755.177472 410.189824"  horiz-adv-x="1024" />

    
    <glyph glyph-name="yidongzhi" unicode="&#59033;" d="M225.207296 252.957696c0 0 227.429376 207.00672 444.976128 145.969152l0-161.888256 289.890304 297.211904L673.553408 749.208576l0-169.828352C673.553408 579.380224 299.48928 613.883904 225.207296 252.957696zM419.047424 613.794816l0-2.981888c8.272896 2.226176 13.090816 3.070976 13.090816 3.070976L419.047424 613.794816zM39.502848 19.196928l0.104448 0L39.607296 588.47744l0 22.731776-0.104448-0.001024L39.502848 19.196928zM701.973504 146.139136l0-63.694848L670.354432 82.444288 166.08768 82.444288 134.464512 82.444288l0 31.619072 0 379.52512 0 31.637504 31.623168 0 107.910144 0c28.244992 29.587456 59.495424 49.738752 86.7072 63.251456L71.222272 588.47744 71.222272 19.196928l693.989376 0 0 218.51136-63.23712-63.255552L701.974528 146.139136zM166.08768 145.72032l0.756736 0L166.844416 493.587456l-0.756736 0L166.08768 145.72032z"  horiz-adv-x="1024" />

    
    <glyph glyph-name="drop-down" unicode="&#59024;" d="M815.25 539.981c-20.446 20.446-53.594 20.446-74.04 0L510 308.771l-231.21 231.21c-20.446 20.446-53.594 20.446-74.04 0-20.446-20.446-20.446-53.594 0-74.04l266.916-266.916c0.425-0.455 0.805-0.938 1.248-1.381 10.24-10.24 23.666-15.348 37.086-15.331 13.421-0.017 26.846 5.091 37.086 15.331 0.443 0.443 0.823 0.924 1.247 1.38L815.25 465.941C835.696 486.387 835.696 519.536 815.25 539.981z"  horiz-adv-x="1024" />

    
    <glyph glyph-name="dropdown" unicode="&#59023;" d="M225.389333 557.48 195.216 527.304 512 210.52 828.784 527.301333 798.613333 557.472 512.002667 270.861333Z"  horiz-adv-x="1024" />

    
    <glyph glyph-name="shanchu1" unicode="&#59092;" d="M386.990351 59.354198 386.990351 452.041812c0 9.866718-8.003606 17.84953-17.851285 17.84953-9.849726 0-17.850261-7.982812-17.850261-17.84953l0-392.687614c0-9.850345 8.000536-17.851577 17.850261-17.851577C378.986745 41.502621 386.990351 49.503852 386.990351 59.354198zM529.793466 59.354198 529.793466 452.041812c0 9.866718-8.003606 17.84953-17.853331 17.84953-9.846656 0-17.848215-7.982812-17.848215-17.84953l0-392.687614c0-9.850345 8.001559-17.851577 17.848215-17.851577C521.788837 41.502621 529.793466 49.503852 529.793466 59.354198zM815.393554 487.740872c-9.845632 0-17.846168-7.983835-17.846168-17.84953l0-481.935264c0-19.697621-15.987768-35.700083-35.702569-35.700083L262.038521-47.744006c-19.715825 0-35.700523 16.002462-35.700523 35.700083L226.337999 469.890318c0 9.866718-8.001559 17.84953-17.850261 17.84953-8.3014 0-15.271424-5.681396-17.26286-13.373589-0.194436 0.107447-0.396036 0.204661-0.588425 0.316202l0-486.72843c0-39.429011 31.953022-71.39812 71.401046-71.39812l499.806295 0c39.430627 0 71.401046 31.969109 71.401046 71.39812L833.244839 469.890318C833.245862 479.757037 825.244303 487.740872 815.393554 487.740872zM869.04872 612.687582 663.473431 612.687582l-65.856545 65.853847c-3.810948 3.811816-8.844798 5.641487-13.840783 5.52176-0.146339 0.00307-0.287561 0.021489-0.4339 0.021489L440.541135 684.084679c-0.128942 0-0.254814-0.016373-0.382732-0.019443-4.979612 0.105401-9.991971-1.726318-13.789616-5.523807l-65.856545-65.853847L154.93593 612.687582c-9.848702 0-17.849238-7.984858-17.849238-17.850553 0-9.849322 8.000536-17.850553 17.849238-17.850553l214.203137 0c0.225137 0 0.444133 0.025583 0.667223 0.033769 5.0799-0.190335 10.221201 1.633197 14.097644 5.508457l65.856545 65.85487 124.462669 0 65.856545-65.85487c3.875419-3.876284 9.017744-5.698792 14.09662-5.508457 0.224113-0.008186 0.44311-0.033769 0.667223-0.033769l214.202113 0c9.848702 0 17.849238 8.001231 17.849238 17.850553C886.898981 604.702724 878.897422 612.687582 869.04872 612.687582zM672.592487 59.354198 672.592487 452.041812c0 9.866718-7.998489 17.84953-17.848215 17.84953s-17.851285-7.982812-17.851285-17.84953l0-392.687614c0-9.850345 8.001559-17.851577 17.851285-17.851577S672.592487 49.503852 672.592487 59.354198z"  horiz-adv-x="1024" />

    
    <glyph glyph-name="mulu" unicode="&#59086;" d="M887.008-212 136.992-212c-25.152 0-45.536 20.384-45.536 45.536L91.456 674.592c0 25.152 20.384 45.536 45.536 45.536L296 720.128 296 812l45.952-0.064 0-91.808 341.152 0L683.104 812l45.952-0.064 0-91.808 157.984 0c25.152 0 45.536-20.384 45.536-45.536l0-841.056C932.544-191.616 912.16-212 887.008-212zM888.416 653.248c0 12.608-10.176 22.784-22.752 22.784l-136.64 0 0-92.512-45.952 0.608L683.072 676 341.952 676l0-92.512L296 584.096 296 676 158.336 676c-12.576 0-22.752-10.176-22.752-22.784L135.584-145.12c0-12.608 10.176-22.784 22.752-22.784l707.328 0c12.576 0 22.752 10.176 22.752 22.784L888.416 653.248zM364.64 105.024l432.448 0 0.288-45.216-432.64 0L364.64 105.024zM364.64 287.2l432.448 0 0.288-45.216-432.64 0L364.64 287.2zM364.64 469.344l432.448 0 0.288-45.216-432.64 0L364.64 469.344zM227.904 105.024l68.032 0 0.48-45.216L228.096 59.808 227.904 105.024zM227.904 287.2l68.032 0 0.48-45.216L228.096 241.984 227.904 287.2zM227.904 469.344l68.032 0 0.48-45.216L228.096 424.128 227.904 469.344z"  horiz-adv-x="1024" />

    
    <glyph glyph-name="likaiim" unicode="&#58939;" d="M511.999488 834.254727c-248.681782 0-450.273176-201.543226-450.273176-450.214818 0-248.711502 201.591394-450.294636 450.273176-450.294636s450.273176 201.583135 450.273176 450.294636C962.272664 632.711502 760.68127 834.254727 511.999488 834.254727zM511.999488 18.20692c-202.051901 0-365.867422 163.810856-365.867422 365.832989 0 202.023156 163.814498 365.8115 365.867422 365.8115 202.049854 0 365.867422-163.789367 365.867422-365.8115C877.865887 182.017776 714.049343 18.20692 511.999488 18.20692zM547.17708 419.21606 547.17708 724.049766 476.821896 724.049766 476.821896 348.823849 521.393824 348.823849 547.17708 348.823849 830.976076 348.823849 830.976076 419.21606Z"  horiz-adv-x="1024" />

    
    <glyph glyph-name="mangluim" unicode="&#58940;" d="M511.999488 834.254727c-248.678712 0-450.273176-201.585181-450.273176-450.254727s201.594464-450.254727 450.273176-450.254727c248.678712 0 450.273176 201.585181 450.273176 450.254727S760.6782 834.254727 511.999488 834.254727zM739.818272 337.49585l-181.308634 0.033769-93.020298-0.024559-181.325008 0.017396-0.00921 92.983741 181.342405 0 92.986528-0.008186 181.360825-0.017396L739.818272 337.49585z"  horiz-adv-x="1024" />

    
    <glyph glyph-name="zaixianim" unicode="&#58941;" d="M511.999488 834.254727c-248.678712 0-450.273176-201.585181-450.273176-450.254727s201.594464-450.254727 450.273176-450.254727c248.678712 0 450.273176 201.585181 450.273176 450.254727S760.6782 834.254727 511.999488 834.254727zM480.664569 223.815741l-64.396228-64.370053-64.431021 64.370053L223.009047 352.648968l64.397251 64.393589L416.244804 288.255379l320.325361 320.298933 64.419765-64.393589L480.664569 223.815741z"  horiz-adv-x="1024" />

    
    <glyph glyph-name="more" unicode="&#59029;" d="M161.822039 482.045013c54.146373 0 98.050054-43.901883 98.050054-98.046037s-43.902658-98.046037-98.050054-98.046037c-54.146373 0-98.050054 43.901883-98.050054 98.046037S107.67669 482.045013 161.822039 482.045013zM511.999488 482.045013c54.146373 0 98.050054-43.901883 98.050054-98.046037s-43.902658-98.046037-98.050054-98.046037c-54.146373 0-98.050054 43.901883-98.050054 98.046037S457.853116 482.045013 511.999488 482.045013zM862.175914 482.045013c54.146373 0 98.050054-43.901883 98.050054-98.046037s-43.902658-98.046037-98.050054-98.046037c-54.145349 0-98.050054 43.901883-98.050054 98.046037S808.030565 482.045013 862.175914 482.045013z"  horiz-adv-x="1024" />

    
    <glyph glyph-name="zanting" unicode="&#59038;" d="M555.90317 238.9443c0-4.114714 1.554466-8.206916 4.638837-11.336186 3.107908-3.151783 7.17981-4.726651 11.228176-4.726651l98.378549 0c4.048365 0 8.120267 1.574868 11.204639 4.726651 3.107908 3.130294 4.662374 7.243985 4.662374 11.336186L686.015744 450.924225l0 78.151941c0 4.114714-1.554466 8.206916-4.662374 11.358699-3.085395 3.130294-7.156273 4.705162-11.204639 4.705162l-98.378549 0c-4.070879 0-8.120267-1.575892-11.228176-4.705162-3.085395-3.151783-4.638837-7.243985-4.638837-11.358699L555.90317 238.9443 555.90317 238.9443zM353.413276 529.076166c0 4.114714 1.531952 8.206916 4.595856 11.358699 3.063904 3.130294 7.090779 4.705162 11.117654 4.705162l97.458559 0c4.027898 0 8.054773-1.575892 11.118677-4.705162 3.063904-3.151783 4.61837-7.243985 4.61837-11.358699l0-290.131867c0-4.114714-1.554466-8.206916-4.61837-11.336186-3.063904-3.151783-7.090779-4.726651-11.118677-4.726651l-97.458559 0c-4.026875 0-8.05375 1.574868-11.117654 4.726651-3.063904 3.130294-4.595856 7.243985-4.595856 11.336186L353.413276 529.076166zM960.225968 790.188092c0 23.219841-18.822442 42.020022-42.021744 42.020022L105.816243 832.208115c-23.220792 0-42.043234-18.799158-42.043234-42.020022l0-812.355719c0-23.198352 18.822442-42.041512 42.043234-42.041512l812.389004 0c23.199302 0 42.021744 18.84316 42.021744 42.041512L960.226991 790.188092 960.225968 790.188092zM857.690579 51.629123c0-7.330966-5.952816-13.30605-13.285105-13.30605L179.616017 38.323073c-7.35378 0-13.306596 5.975085-13.306596 13.30605L166.309421 716.391343c0 7.353478 5.952816 13.30605 13.306596 13.30605l664.788434 0c7.332289 0 13.285105-5.952572 13.285105-13.30605L857.689556 51.629123 857.690579 51.629123z"  horiz-adv-x="1024" />

    
    <glyph glyph-name="tixing" unicode="&#59005;" d="M890.313 115.736c-12.506 17.114-26.494 37.516-41.958 61.213-15.471 23.693-30.114 49.854-43.937 78.484-13.821 28.63-25.668 58.907-35.542 90.83-9.872 31.922-14.808 64.336-14.808 97.248 0 32.248-4.44 61.533-13.326 87.864-8.889 26.325-20.732 49.689-35.542 70.097-14.809 20.4-32.251 37.513-52.328 51.334-20.074 13.82-41.298 24.355-63.677 31.595 4.608 7.24 8.229 15.299 10.861 24.184 2.631 8.892 3.947 17.939 3.947 27.15 0 26.986-9.218 49.696-27.646 68.126-18.424 18.429-41.134 27.641-68.12 27.641s-49.689-9.212-68.12-27.641c-18.429-18.43-27.641-41.14-27.641-68.126 0-18.429 5.263-36.198 15.792-53.312-21.063-7.241-41.299-17.77-60.717-31.589-19.412-13.827-36.524-30.606-51.334-50.352-14.809-19.745-26.823-42.783-36.039-69.107-9.213-26.332-13.822-55.95-13.822-88.854 0-34.229-4.937-66.968-14.81-98.234-9.872-31.263-21.552-60.88-35.045-88.854-13.495-27.969-27.81-54.135-42.948-78.484-15.136-24.354-28.301-46.404-39.491-66.149-7.238-11.188-8.719-20.569-4.443-28.139 4.279-7.568 11.023-11.354 20.241-11.354l720.704 0c3.946 0 7.895 1.153 11.844 3.457 3.952 2.306 7.239 5.429 9.872 9.377 2.637 3.952 4.117 8.721 4.444 14.315C897.057 104.057 894.921 109.812 890.313 115.736zM535.887 709.082c-7.24-7.24-16.125-11.189-26.658-11.849l-1.978 0c-10.528 0-19.412 3.785-26.652 11.352-7.241 7.574-10.861 16.622-10.861 27.15 0 11.189 3.621 20.407 10.861 27.647s16.452 10.861 27.641 10.861c11.189 0 20.407-3.621 27.647-10.861s10.855-16.458 10.855-27.647C546.742 725.207 543.127 716.322 535.887 709.082zM512.001-63.502c51.228 0 92.757 41.528 92.757 92.756L419.245 29.254C419.245-21.975 460.773-63.502 512.001-63.502z"  horiz-adv-x="1024" />

    
    <glyph glyph-name="group" unicode="&#59007;" d="M601.318336 776.522861c-123.298099 0-223.599519-100.29731-223.599519-223.590358 0-85.182055 47.898832-159.38301 118.176242-197.11231-146.352086-45.12064-253.004404-181.628664-253.004404-342.591659 0-11.799744 9.548861-21.348214 21.349089-21.348214 11.800227 0 21.349089 9.54847 21.349089 21.348214 0 174.076664 141.644684 315.716568 314.145361 315.77899 2.285136-0.231267 4.532409-0.070608 6.6753 0.419556 120.935188 2.716878 218.486872 101.935624 218.486872 223.505423C824.897388 676.225551 724.595968 776.522861 601.318336 776.522861zM601.318336 372.058017c-99.759045 0-180.901342 81.138972-180.901342 180.874487 0 99.755981 81.142296 180.89393 180.901342 180.89393 99.739602 0 180.881898-81.138972 180.881898-180.89393C782.200234 453.196988 701.057938 372.058017 601.318336 372.058017zM855.106625 266.277832c-8.317774 8.359388-21.828016 8.359388-30.187746 0.040932-8.339264-8.318456-8.360754-21.827121-0.040934-30.187533 59.439129-59.623959 92.169896-138.782833 92.169896-222.902696 0-11.799744 9.547838-21.348214 21.348065-21.348214 11.799204 0 21.349089 9.54847 21.349089 21.348214C959.746018 108.731656 922.593364 198.604546 855.106625 266.277832zM375.466428 366.595608c0 0.027629-0.004093 0.055259-0.004093 0.082888 0 0.028653 0.004093 0.056282 0.004093 0.083911 0 11.799744-9.547838 21.347191-21.348065 21.347191-77.452103 0-140.456577 67.317175-140.456577 150.061714s63.004474 150.060691 140.456577 150.060691c11.800227 0 21.348065 9.549493 21.348065 21.348214s-9.547838 21.348214-21.348065 21.348214c-100.990133 0-183.154754-86.475514-183.154754-192.757119 0-70.715575 36.382073-132.651182 90.474208-166.193113C146.267148 331.058231 63.093505 216.057033 63.093505 80.94173c0-11.800767 9.548861-21.347191 21.349089-21.347191s21.349089 9.546424 21.349089 21.347191c0 145.745409 111.39349 264.306688 248.32668 264.306688C365.91859 345.248418 375.466428 354.795864 375.466428 366.595608z"  horiz-adv-x="1024" />

    
    <glyph glyph-name="gengduo" unicode="&#58999;" d="M251.06848 385.230014c0-39.297005-31.857882-71.15355-71.156536-71.15355s-71.156536 31.856545-71.156536 71.15355c0 39.297005 31.857882 71.15355 71.156536 71.15355S251.06848 424.527019 251.06848 385.230014zM844.642711 456.383564c-39.298654 0-71.156536-31.856545-71.156536-71.15355s31.857882-71.15355 71.156536-71.15355c39.298654 0 71.156536 31.856545 71.156536 71.15355C915.799248 424.527019 883.941365 456.383564 844.642711 456.383564zM512.277328 456.383564c-39.298654 0-71.156536-31.856545-71.156536-71.15355s31.857882-71.15355 71.156536-71.15355 71.156536 31.856545 71.156536 71.15355C583.433864 424.527019 551.575982 456.383564 512.277328 456.383564z"  horiz-adv-x="1024" />

    
    <glyph glyph-name="29" unicode="&#58944;" d="M316.928 418.624l120.064-238.656c0 0 195.008 484.992 502.656 646.656-7.488-115.456-37.504-215.552 14.976-338.752-135.04-30.784-412.672-377.28-502.72-546.624-127.488 161.664-277.632 284.864-382.656 323.392L316.928 418.624z"  horiz-adv-x="1024" />

    
    <glyph glyph-name="guanbi" unicode="&#59037;" d="M573.989475 396.942837l288.898365 279.702021c14.022629 13.587739 14.022629 35.617094 0 49.206846-14.020551 13.587739-36.757056 13.587739-50.780724 0L523.185891 446.128539 234.265705 725.852712c-14.023668 13.587739-36.760173 13.587739-50.780724 0-14.022629-13.589753-14.022629-35.620114 0-49.206846l288.898365-279.702021L183.484981 117.240816c-14.022629-13.587739-14.022629-35.617094 0-49.206846 14.020551-13.587739 36.757056-13.587739 50.780724 0l288.920186 279.724172 288.920186-279.724172c14.023668-13.587739 36.760173-13.587739 50.780724 0 14.022629 13.589753 14.022629 35.620114 0 49.206846L573.989475 396.942837z"  horiz-adv-x="1024" />

    
    <glyph glyph-name="pinglunhuifu" unicode="&#58947;" d="M581.453028 532.442 581.453028 708.085c0 4.565-0.967 8.902-2.696 12.83-1.553 3.948-3.918 7.651-7.107 10.844-12.449 12.453-32.641 12.453-45.09 0L205.536028 410.735c-8.685-8.684-11.304-21.13-7.874-32.092-1.69-9.799 1.239-20.239 8.809-27.8L525.422028 31.89c7.006-7.004 16.47-10.04 25.607-9.113 16.93 0.758 30.425 14.722 30.425 31.84L581.454028 228.439c58.517-6.14 147.358-65.43 168.906-146.348l46.852 27.049C768.849028 215.362 672.604028 293.55 558.214028 293.55c-1.238 0-2.469-0.028-3.702-0.047l0-0.194c-1.607 0.25-3.256 0.382-4.934 0.382-17.604 0-31.876-14.272-31.876-31.877l0-132.63L265.919028 380.956l251.783 251.781 0-131.849c0-17.062 13.409-30.996 30.264-31.835l0.138-0.552c6.301 0.265 12.635 0.406 19.001 0.406 179.491 0 334.208-105.979 405.049-258.768l55.426 31.999C947.475028 409.889 778.423028 526.998 581.453028 532.442zM74.668028 380.962l305.721 305.721c12.438 12.452 12.438 32.624 0 45.076-12.45 12.453-32.639 12.453-45.091 0L14.277028 410.735c-8.684-8.684-11.304-21.128-7.873-32.09-1.692-9.8 1.237-20.242 8.808-27.802L334.162028 31.89c12.374-12.372 32.421-12.372 44.796 0 12.359 12.361 12.359 32.424 0 44.781L74.668028 380.962z"  horiz-adv-x="1028" />

    
    <glyph glyph-name="yonghuming" unicode="&#59073;" d="M522.048 177.568c-174.848 0-317.184 142.336-317.184 317.248C204.864 669.792 347.2 812 522.048 812s317.248-142.208 317.248-317.248C839.296 319.904 696.96 177.568 522.048 177.568M522.048 714.464c-121.152 0-219.648-98.56-219.648-219.648 0-121.024 98.496-219.52 219.648-219.52s219.712 98.56 219.712 219.52C741.76 615.904 643.2 714.464 522.048 714.464M522.048-209.248 213.056-209.248c-26.944 0-48.768 21.824-48.768 48.896 0 411.072 203.456 467.712 212.16 469.888l25.216-94.208C400.384 214.88 275.904 172.576 263.04-111.712l259.008 0L522.048-209.248zM831.104-209.248 522.176-209.248l0 99.456 259.2 0c-12.928 289.664-137.536 332.864-138.816 333.312l25.344 96.064c8.64-2.24 212.032-60.032 212.032-478.976C880-186.976 858.176-209.248 831.104-209.248"  horiz-adv-x="1024" />

    
    <glyph glyph-name="audio" unicode="&#59102;" d="M162.090667-71.754667c-3.726222 0-7.424 1.450667-10.225778 4.337778-15.658667 16.170667-24.263111 37.475556-24.248889 59.975111 0 7.836444 6.371556 14.193778 14.222222 14.193778 0 0 0 0 0.014222 0 7.850667 0 14.208-6.357333 14.208-14.222222-0.014222-15.089778 5.76-29.340444 16.256-40.163556 5.461333-5.632 5.319111-14.663111-0.327111-20.110222C169.216-70.417778 165.660444-71.754667 162.090667-71.754667zM730.965333 42.023111c-3.740444 0-7.424 1.450667-10.24 4.337778-15.658667 16.170667-24.263111 37.475556-24.234667 59.960889 0 7.850667 6.357333 14.208 14.222222 14.208l0 0c7.864889 0 14.222222-6.357333 14.222222-14.236444-0.028444-15.075556 5.745778-29.326222 16.256-40.149333 5.461333-5.632 5.304889-14.663111-0.327111-20.110222C738.076444 43.36 734.520889 42.023111 730.965333 42.023111zM209.792-94.467556c-2.360889 0-5.105778 0.426667-8.32 1.507556-7.452444 2.474667-11.505778 10.481778-9.031111 17.976889 2.318222 6.997333 9.543111 10.965333 16.625778 9.386667 1.479111 0.270222 3.057778 0.341333 4.750222 0.341333 7.864889 0 14.222222-6.343111 14.222222-14.222222 0-7.480889-5.788444-13.639111-13.141333-14.193778C213.447111-94.140444 211.754667-94.467556 209.792-94.467556zM789.916444-65.041778c-94.108444 0-170.666667 76.558222-170.666667 170.652444 0 94.108444 76.558222 170.666667 170.666667 170.666667 80.896 0 170.965333-20.778667 174.748444-21.632 11.861333-2.773333 20.636444-12.785778 21.831111-24.917333 0.64-6.257778 14.336-154.524444-61.866667-238.634667C890.922667-46.140444 845.568-65.041778 789.916444-65.041778zM789.916444 219.402667c-62.734222 0-113.777778-51.043556-113.777778-113.777778s51.043556-113.763556 113.777778-113.763556c39.409778 0 69.632 12.188444 92.458667 37.304889 44.928 49.479111 49.123556 135.281778 48.469333 174.449778C900.465778 209.532444 842.097778 219.402667 789.916444 219.402667zM958.208 201.312c-15.658667 0-28.373333 11.249778-28.444444 26.894222L927.388444 739.509333c-0.071111 15.715556 12.600889 30.677333 28.302222 30.677333 0.056889 0 0.099556 0 0.142222 0 15.672889 0 28.373333-15.445333 28.444444-31.118222l2.375111-509.212444c0.071111-15.715556-12.600889-28.586667-28.302222-28.586667C958.293333 201.312 958.250667 201.312 958.208 201.312zM206.819556-178.819556c-94.108444 0-170.666667 76.558222-170.666667 170.666667s76.558222 170.652444 170.666667 170.652444c80.896 0 170.965333-20.778667 174.748444-21.632 11.861333-2.773333 20.650667-12.785778 21.845333-24.917333 0.625778-6.257778 14.321778-154.524444-61.880889-238.634667C307.797333-159.918222 262.471111-178.819556 206.819556-178.819556zM206.819556 105.624889c-62.734222 0-113.777778-51.043556-113.777778-113.763556 0-62.748444 51.043556-113.777778 113.777778-113.777778 39.409778 0 69.646222 12.188444 92.458667 37.304889 44.928 49.479111 49.123556 135.281778 48.469333 174.449778C317.368889 95.754667 258.986667 105.624889 206.819556 105.624889zM375.111111 73.297778c-15.658667 0-28.373333 11.249778-28.444444 26.922667l-2.375111 526.734222c-0.071111 15.701333 12.615111 29.468444 28.316444 29.468444 0.042667 0 0.085333 0 0.128 0 15.658667 0 28.373333-14.250667 28.444444-29.923556l2.375111-525.255111c0.071111-15.701333-12.615111-27.946667-28.316444-27.946667C375.182222 73.297778 375.139556 73.297778 375.111111 73.297778zM372.707556 610.542222c-13.383111 0-25.301333 9.486222-27.918222 23.111111-2.944 15.431111 7.182222 30.321778 22.613333 33.28l583.111111 111.388444c15.530667 2.872889 30.336-7.196444 33.28-22.613333 2.944-15.431111-7.182222-30.321778-22.613333-33.28l-583.111111-111.388444C376.263111 610.712889 374.471111 610.542222 372.707556 610.542222zM385.578667 499.210667c-13.383111 0-25.301333 9.472-27.918222 23.111111-2.944 15.431111 7.182222 30.321778 22.613333 33.28l570.225778 108.942222c15.402667 2.816 30.336-7.182222 33.28-22.613333s-7.182222-30.321778-22.613333-33.28l-570.225778-108.942222C389.148444 499.381333 387.342222 499.210667 385.578667 499.210667z"  horiz-adv-x="1024" />

    
    <glyph glyph-name="fasong" unicode="&#58880;" d="M949.33 396.305l-279.297-0.27 5.515-453.177-312.701 0-12.817 435.858-272.455-7.988 423.161 448.67 448.609-423.059zM949.33 396.305z"  horiz-adv-x="1024" />

    
    <glyph glyph-name="huihua" unicode="&#58881;" d="M501.955 816.434c60.318 0.662 116.916-10.298 169.95-32.783s99.59-53.21 139.616-91.943c40.091-38.78 71.728-84.512 94.934-137.187s35.168-109.156 35.795-169.434c0.662-57.009-9.089-110.668-29.309-161.013-20.213-50.347-48.354-94.934-84.512-133.676-36.086-38.78-78.483-70.763-127.213-95.956s-101.237-40.784-157.535-46.715c-14.62-1.983-30.137-3.649-46.715-4.953s-34.921-2.323-55.125-2.98c-20.213-0.706-42.769-0.706-67.581 0-24.832 0.662-52.86 2.624-83.969 5.938-68.93 6.582-120.084 15.23-153.551 25.821-33.463 10.613-46.832 16.528-40.236 17.847 35.101 5.938 65.216 15.613 90.398 28.813 13.265 7.295 18.774 17.697 16.406 31.313-2.323 13.541-8.745 26.339-19.407 38.269-33.824 37.148-61.136 80.308-81.996 129.694-20.851 49.339-32.02 102.566-33.28 159.489-0.662 60.318 10.298 116.916 32.783 169.95s53.316 99.396 92.441 139.129 85.17 71.237 138.174 94.436 109.563 35.276 169.865 35.911l0 0zM695.794 379.117c0-17.219 5.938-31.954 17.847-44.223s26.512-18.409 43.762-18.409 31.954 6.114 44.223 18.409 18.409 26.977 18.409 44.223-6.114 31.756-18.409 43.762c-12.266 11.977-26.977 17.956-44.223 17.956s-31.756-5.938-43.762-17.956c-11.892-11.892-17.847-26.512-17.847-43.762l0 0zM446.321 379.117c0-17.219 6.275-32.138 18.877-44.742 12.549-12.611 27.515-18.948 44.742-18.948 17.847 0 32.929 6.324 45.206 18.948 12.266 12.549 18.409 27.515 18.409 44.742 0 17.847-6.114 32.929-18.409 45.206-12.266 12.221-27.317 18.326-45.206 18.326-17.219 0-32.138-6.114-44.742-18.326-12.611-12.221-18.877-27.282-18.877-45.206l0 0zM199.836 380.164c0-17.219 6.114-32.138 18.409-44.742 12.266-12.549 26.977-18.877 44.223-18.877 17.847 0 32.929 6.324 45.206 18.877 12.266 12.611 18.409 27.515 18.409 44.742s-6.114 31.954-18.409 44.223c-12.266 12.221-27.317 18.326-45.206 18.326-17.219 0-31.954-6.114-44.223-18.326-12.266-12.266-18.409-26.977-18.409-44.223l0 0zM199.836 380.164z"  horiz-adv-x="1024" />

    
    <glyph glyph-name="ren" unicode="&#58882;" d="M676.256 735.121c7.955-32.357 8.859-35.083 8.034-68.246-0.372-12.817-7.667-72.046-5.727-90.075 1.591-15.011 5.283-16.179 11.401-28.532 10.211-21.39 6.933-51.062 2.916-72.717-2.162-11.882-6.759-28.743-13.619-38.463-7.615-10.62-23.075-10.78-29.709-23.245-9.671-17.956-4.225-42.978-10.211-62.267-7.188-21.993-24.882-23.423-26.215-52.08 8.723-1.346 17.371-2.455 26.215-3.782 8.723-18.529 24.502-55.916 40.859-67.187 13.619-3.645 27.324-7.356 40.953-11.125 48.044-19.562 101.05-43.025 149.021-63.268 43.683-18.402 96.049-25.023 111.92-70.786 0-31.129 2.986-104.614 2.023-145.328l-951.674 0c-0.804 40.725 2.162 114.444 2.162 145.328 15.74 45.773 68.02 52.371 111.737 70.786 48.044 20.251 101.193 43.683 149.04 63.268 13.671 3.782 27.38 7.558 41.05 11.125 16.314 11.308 32.211 48.566 41.05 67.187l19.407 4.682c-4.303 24.502-19.537 26.286-25.876 43.787-2.478 26.025-5.038 52.106-7.463 78.1 0.003-1.26-17.956 3.322-20.213 4.759-25.306 15.825-25.833 80.263-28.287 107.019-1.041 12.266 16.043 22.341 11.158 44.81-27.757 131.361 12.046 192.877 74.845 213.333 43.607 17.657 125.033 50.307 201.073 3.713l18.618-17.478 30.608-5.283c15.294-8.807 24.965-38.031 24.965-38.031l0 0zM676.256 735.121zM476.167 164.136l63.948 0 0-226.14-63.948 0 0 226.14z"  horiz-adv-x="1024" />

    
    <glyph glyph-name="zuzhi" unicode="&#58884;" d="M79.635 387.101c0 0 0 105.569 106.022 144.208 0 0 92.34 37.941 170.122-38.611l259.889 134.046c0 0-16.434 127.132 111.394 175.797 0 0 136.563 41.665 196.659-93.593 0 0 50.606-113.892-57.538-192.239 0 0-96.737-72.793-201.157 15.825l-265.596-136.059c0 0 2.407-17.766 0-35.373l265.257-131.891c0 0 90.07 90.146 206.445 12.925 0 0 117.151-89.143 39.222-215.047 0 0-78.427-122.706-216.973-51.9 0 0-86.543 42.374-77.765 159.474l-263.137 131.394c0 0-60.06-67.084-164.491-36.649 0 0.007-108.483 32.064-108.483 157.657l0 0zM79.635 387.101z"  horiz-adv-x="1024" />

    
    <glyph glyph-name="lishixiaoxi" unicode="&#58886;" d="M522.455 688.356c173.788 0 315.222-141.425 315.222-315.222 0-173.788-141.328-315.222-315.222-315.222s-315.222 141.328-315.222 315.222c0 173.841 141.328 315.222 315.222 315.222M522.455 793.39c-232.071 0-420.253-188.187-420.253-420.253 0-232.121 188.187-420.253 420.253-420.253 232.175 0 420.253 188.132 420.253 420.253 0 232.071-188.084 420.253-420.253 420.253M627.503 215.552c-13.502 0-26.882 5.101-37.135 15.248l-105.045 105.147c-9.554 9.45-15.466 22.526-15.466 37.033l0 0 0 210.285c0 29.119 23.485 52.544 52.544 52.544 29.119 0 52.544-23.429 52.544-52.544l0-188.399 89.686-89.686c20.561-20.561 20.561-53.873 0-74.329-10.252-10.252-23.757-15.303-37.135-15.303z"  horiz-adv-x="1024" />

    
    <glyph glyph-name="lianjie" unicode="&#58887;" d="M303.252 784.187c-2.543 0-5.076-0.048-7.57-0.15-51.154-2.042-100.561-24.304-138.915-62.716-38.403-38.403-60.764-87.861-62.864-139.215-2.341-57.771 21.218-113.117 68.044-160.039l344.829-344.88 9.265 9.265-344.88 344.829c-98.27 98.325-71.568 214.478-5.177 280.919 36.059 36.007 82.278 56.937 130.155 58.877 53.994 2.042 105.945-20.174 150.32-64.505l442.05-442.05c32.471-32.524 48.659-70.928 46.623-110.975-1.851-35.561-17.691-70.083-44.825-97.23-49.801-49.801-136.279-70.628-208.494 1.437l-345.819 345.819c-48.067 48.067-34.319 105.449-1.344 138.516 33.375 33.375 91.201 47.361 139.215-0.704l248.656-248.656 9.265 9.265-248.656 248.656c-51.948 51.948-118.595 39.599-157.699 0.645-20.327-20.37-32.275-46.37-33.674-73.222-1.437-30.286 10.611-59.273 35.018-83.78l345.869-345.819c35.171-35.121 76.899-52.546 120.884-50.205 38.901 2.042 76.506 19.276 106.045 48.764 29.388 29.388 46.677 66.946 48.659 105.793 2.246 43.781-15.196 85.569-50.405 120.784l-442.05 442.05c-45.125 44.926-97.525 68.49-152.514 68.49l0 0z"  horiz-adv-x="1024" />

    
    <glyph glyph-name="naozhong" unicode="&#58888;" d="M865.226 439.361c-41.34 114.65-142.288 202.645-267.772 230.655 32.157 46.125 85.422 76.444 145.888 76.444 98.315 0 177.985-79.702 177.985-177.969 0.032-51.005-21.714-96.678-56.101-129.131l0 0zM522.974 739.806l0-111.906c170.782-6.969 307.179-147.214 307.179-319.68 0-72.033-24.052-138.22-64.144-191.748l74.23-128.57-61.682-35.587-63.491 110.035c-55.588-46.452-127.122-74.464-205.232-74.464-77.675 0-148.865 27.636-204.329 73.654l-65.173-112.858-61.635 35.587 75.711 131.188c-40.577 53.67-64.939 120.325-64.939 192.779 0 171.328 134.603 310.794 303.701 319.507l0 112.095c-17.271 6.173-29.788 22.29-29.788 41.683 0 24.707 20.031 44.707 44.707 44.707 24.707 0 44.707-20.015 44.707-44.707 0-19.423-12.547-35.523-29.82-41.713l0 0zM260.644 308.219c0-137.611 111.549-249.159 249.159-249.159s249.159 111.517 249.159 249.159c0 137.595-111.549 249.145-249.159 249.145s-249.159-111.549-249.159-249.145l0 0zM584.501 254.362l-89.46 0c-16.446 0-29.788 13.359-29.788 29.804l0 119.233c0 16.477 13.343 29.82 29.788 29.82 16.508 0 29.82-13.343 29.82-29.82l0-89.427 59.638 0c16.462 0 29.788-13.327 29.788-29.835 0-16.415-13.327-29.772-29.788-29.772l0 0zM158.837 439.361c-34.387 32.454-56.148 78.142-56.148 129.147 0 98.283 79.686 177.969 177.985 177.969 60.482 0 113.73-30.334 145.888-76.46-125.468-28.012-226.385-116.005-267.725-230.655l0 0z"  horiz-adv-x="1024" />

    
    <glyph glyph-name="quanbu" unicode="&#58889;" d="M93.986 771.664l836.11 0 0-162.942-836.11 0 0 162.942zM93.986 461.706l836.11 0 0-163.003-836.11 0 0 163.003zM93.986 166.968l836.11 0 0-163.071-836.11 0 0 163.071z"  horiz-adv-x="1024" />

    
    <glyph glyph-name="shuaxin" unicode="&#58890;" d="M207.507 483.775c44.612 125.206 163.942 214.742 304.493 214.742 61.28 0 118.471-17.293 167.395-46.961l-59.466-104.083 323.117-163.236c-4.944 233.971-195.794 422.254-431.034 422.254-187.644 0-346.985-120.034-406.214-287.267 15.015-78.972 86.475-61.75 101.737-35.452l0 0zM813.678 258.783c-46.64-121.374-164.02-207.612-301.678-207.612-63.067 0-121.686 18.315-171.298 49.532l52.587 84.038-312.236 179.439c5.635-233.353 196.333-420.698 431.034-420.698 188.752 0 348.777 121.374 407.316 290.245 17.61 51.339-68.316 122.316-105.73 25.047l0 0z"  horiz-adv-x="1024" />

    
    <glyph glyph-name="yiyue" unicode="&#58892;" d="M825.798 665.135c16.39-14.234 10.816-25.935-12.315-25.935l-148.784 0c-23.161 0-31.935 10.157-31.935 30.286l0 127.168c0 20.202 13.468 25.014 29.743 10.736l163.293-142.251zM790.28 622.041c33.892 0 45.631-16.278 45.631-47.361l0-561.636c0-39.938-32.702-72.641-72.675-72.641l-508.465 0c-39.977 0-72.675 32.702-72.675 72.641l0 730.046c0 39.977 32.702 72.675 72.675 72.675l305.424 0c36.743 0 51.602-10.43 51.602-47.251l-0.116-101.81c0-39.938 19.623-44.711 59.562-44.711l119.043 0.037zM691.896 515.696l-365.063 0c-24.507 0-44.476-13.853-44.476-30.819s20.048-30.894 44.476-30.894l365.063 0c24.434 0 44.398 13.891 44.398 30.894 0 16.928-19.968 30.819-44.398 30.819l0 0zM691.896 393.652l-365.063 0c-24.507 0-44.476-13.891-44.476-30.927 0-16.928 20.048-30.858 44.476-30.858l365.063 0c24.434 0 44.398 13.811 44.398 30.858 0 16.967-19.968 30.927-44.398 30.927l0 0zM489.668 271.529l-166.99 0c-12.7 0-35.86-13.891-35.86-30.894s22.702-30.894 35.397-30.894l167.141 0c12.7 0 33.589 13.891 33.589 30.894s-20.587 30.894-33.282 30.894l0 0z"  horiz-adv-x="1024" />

    
    <glyph glyph-name="shezhi" unicode="&#58943;" d="M802 448l-75.294 0c-4.434 14.895-10.361 29.146-17.633 42.565l53.242 53.242c11.716 11.715 11.716 30.711 0 42.426l-48.083 48.083c-11.716 11.715-30.711 11.715-42.427 0l-53.242-53.242c-13.419 7.271-27.669 13.199-42.563 17.632L576 674c0 16.568-13.432 30-30 30l-68 0c-16.568 0-30-13.432-30-30l0-75.294c-14.895-4.434-29.145-10.361-42.564-17.632l-53.242 53.242c-11.716 11.715-30.711 11.715-42.427 0l-48.083-48.083c-11.716-11.715-11.716-30.711 0-42.426l53.242-53.242c-7.271-13.419-13.199-27.67-17.632-42.564L222 448.001c-16.568 0-30-13.432-30-30l0-68c0-16.568 13.432-30 30-30l75.294 0c4.434-14.895 10.361-29.145 17.632-42.563l-53.242-53.242c-11.715-11.716-11.715-30.711 0-42.427l48.083-48.083c11.715-11.716 30.711-11.716 42.426 0l53.242 53.241c13.419-7.271 27.67-13.198 42.564-17.632L447.999 94c0-16.568 13.432-30 30-30l68 0c16.568 0 30 13.432 30 30l0 75.294c14.895 4.434 29.146 10.361 42.564 17.633l53.242-53.242c11.716-11.716 30.711-11.716 42.427 0l48.083 48.083c11.716 11.716 11.716 30.711 0 42.427l-53.242 53.242c7.271 13.419 13.198 27.669 17.632 42.563L802 320c16.568 0 30 13.432 30 30l0 68C832 434.568 818.568 448 802 448zM512 256c-70.692 0-128 57.307-128 128 0 70.692 57.308 128 128 128 70.693 0 128-57.308 128-128C640 313.307 582.693 256 512 256z"  horiz-adv-x="1024" />

    
    <glyph glyph-name="apk" unicode="&#59103;" d="M952.192 622.784v0l-39.872 20.48v169.536c0 1.92-0.128 3.84-0.576 5.76-2.688 11.2-12.736 19.136-24.256 19.136h-750.912c-11.52 0-21.568-7.936-24.256-19.136-0.448-1.92-0.576-3.84-0.576-5.76h-0.128v-169.6l-39.808-20.416c0 0 0 0 0 0-2.304-1.216-4.416-2.688-6.208-4.544-4.672-4.672-7.296-11.008-7.296-17.664l0.064-571.2c0-54.656 44.48-99.072 99.072-99.072h725.824c50.88 0 82.496 37.952 82.496 99.072l0 571.2c-0.064 9.664-5.568 18.048-13.568 22.208zM783.104 787.904l-88.32-44.736c-8.128-4.096-13.248-12.288-13.568-21.312h-0.064v-0.448c0-0.128 0-0.256 0-0.384s0-0.32 0-0.448v-94.976h-338.24v96.192h-0.128c-0.32 9.024-5.504 17.216-13.568 21.312l-88.32 44.736h542.208zM862.464 772.224v-103.424l-101.504 51.968 101.504 51.456zM161.472 772.224l101.568-51.456-101.568-52.032v103.488zM915.84 165.248l-57.408 97.28-449.024-264.96 10.304-17.472h-262.272c-27.136 0-49.28 22.080-49.28 49.28v546.304h807.68v-410.432zM293.504 325.44l79.36-48.448c-37.824-75.776-32-163.2 13.184-239.808l449.024 264.96c-45.248 76.672-118.912 124.032-203.584 127.616l-4.032 92.8c-0.576 15.872-14.016 28.224-29.952 27.52-15.936-0.64-28.224-14.080-27.52-30.016l4.096-94.336c-32.192-5.696-64-17.152-93.952-34.88-30.016-17.664-55.488-40-76.032-65.344l-80.576 49.152c-13.568 8.32-31.36 3.968-39.616-9.6-8.32-13.632-4.032-31.36 9.6-39.616zM610.112 356.096c18.688 11.008 43.328 4.032 54.656-15.168 11.52-19.52 5.504-44.16-13.12-55.168-18.624-11.008-43.136-4.352-54.656 15.168-11.392 19.264-5.504 44.16 13.12 55.168zM446.592 262.4c18.816 11.072 43.328 4.096 54.848-15.168 11.328-19.392 5.376-44.224-13.44-55.296-18.688-11.008-43.2-4.16-54.592 15.168-11.392 19.328-5.568 44.224 13.184 55.296z"  horiz-adv-x="1024" />

    
    <glyph glyph-name="qingkongshanchu" unicode="&#58948;" d="M694.857143 749.714286 694.857143 822.857143c0 40.393143-32.749714 73.142857-73.142857 73.142857L402.285714 896c-40.393143 0-73.142857-32.749714-73.142857-73.142857l0-73.142857L36.571429 749.714286l0-73.142857 109.714286 0 0-731.428571c0-40.393143 32.749714-73.142857 73.142857-73.142857l585.142857 0c40.393143 0 73.142857 32.749714 73.142857 73.142857L877.714286 676.571429l109.714286 0L987.428571 749.714286 694.857143 749.714286zM402.285714 822.857143l219.428571 0 0-73.142857L402.285714 749.714286 402.285714 822.857143zM804.571429-54.857143 219.428571-54.857143 219.428571 676.571429l585.142857 0L804.571429-54.857143zM329.142857 566.857143l73.142857 0 0-512-73.142857 0 0 512ZM475.428571 566.857143l73.142857 0 0-512-73.142857 0 0 512ZM621.714286 566.857143l73.142857 0 0-512-73.142857 0 0 512Z"  horiz-adv-x="1024" />

    
    <glyph glyph-name="mima" unicode="&#59074;" d="M804.984333-211.50472 216.288556-211.50472c-59.108213 0-107.026572 48.231491-107.026572 107.732653L109.261984 434.928039l107.026572 0 0 80.802304c0 163.628708 131.780349 296.269657 294.348911 296.269657 162.54912 0 294.347888-132.640949 294.347888-296.269657l0-80.802304 107.026572 0 0-538.700105C912.010905-163.273229 864.093569-211.50472 804.984333-211.50472zM714.674491 499.150736c0 113.278973-91.229794 205.116611-203.783243 205.116611l-0.508583 0c-112.554472 0-203.78529-91.837638-203.78529-205.116611l0-64.222697 408.077116 0L714.674491 499.150736zM804.984333 327.175943 216.288556 327.175943l0-377.069915c0-29.751604 23.969924-53.876048 53.524031-53.876048l481.649761 0c29.554106 0 53.521984 24.124444 53.521984 53.876048L804.984333 327.175943zM551.030433 85.899784l0-81.959663-80.806397 0L470.224036 85.899784c-24.085558 12.522198-40.412408 35.494399-40.412408 62.069661 0 39.762609 36.2189 71.984475 80.804351 71.984475 44.586474 0 80.805374-32.220842 80.805374-71.984475C591.422376 121.394183 575.117015 98.423005 551.030433 85.899784z"  horiz-adv-x="1024" />

    
    <glyph glyph-name="yun01" unicode="&#58907;" d="M867.616 439.076c-3.085 137.904-103.053 248.662-226.012 248.662-72.02 0-136.126-38.036-177.555-97.23-23.223 33.858-59.557 55.693-100.442 55.693-70.139 0-126.982-64.158-126.982-143.285 0-6.896 0.468-13.667 1.28-20.297-10.66 2.169-21.629 3.372-32.835 3.372-101.671 0-184.086-92.996-184.086-207.677 0-114.735 82.421-207.702 184.086-207.702l623.606 0c91.35 0.207 165.357 83.802 165.357 186.911-0.025 87.927-53.917 161.65-126.411 181.554zM536.457 198.382l-53.761 0 0 53.789 53.761 0 0-53.789zM599.308 367.529c-6.688-10.581-20.997-24.997-42.949-43.235-11.362-9.431-18.419-17.008-21.133-22.78-2.741-5.722-3.998-15.986-3.735-30.8l-48.799 0c-0.131 7.027-0.182 11.313-0.182 12.821 0 15.78 2.61 28.813 7.838 39.029 5.226 10.188 15.702 21.653 31.373 34.43 15.702 12.721 25.053 21.107 28.133 25.053 4.726 6.244 7.081 13.141 7.081 20.663 0 10.45-4.179 19.41-12.513 26.882-8.361 7.444-19.617 11.183-33.779 11.183-13.637 0-25.053-3.867-34.245-11.647s-15.492-19.647-18.938-35.578l-49.372 6.113c1.41 22.83 11.129 42.213 29.18 58.177 18.025 15.934 41.744 23.926 71.082 23.926 30.878 0 55.431-8.099 73.669-24.215 18.234-16.143 27.346-34.926 27.346-56.347-0.025-11.861-3.372-23.093-10.059-33.674z"  horiz-adv-x="1024" />

    
    <glyph glyph-name="zhanghao" unicode="&#59006;" d="M471.280088 203.123466c-4.503571 1.477654-32.803103 30.516014-15.124466 85.133959l-0.200568 0c46.113247 48.230468 85.571934 125.802194 85.571934 202.231911 0 117.433596-81.202417 179.007977-170.605609 179.007977-89.470731 0-167.109995-61.574381-167.109995-179.007977 0-76.698846 36.164664-154.606217 82.547041-202.77017 18.081821-48.130184-14.251585-82.040505-21.040199-84.5957C171.747107 168.774147 61.841975 106.056734 61.841975 44.213223c0-16.703427 0-6.588045 0-23.189142 0-84.293825 160.992671-103.45114 309.952284-103.45114 149.162228 0 308.138986 19.157315 308.138986 103.45114 0 16.60212 0 6.485715 0 23.189142C679.933245 107.939617 569.556369 170.118771 471.280088 203.123466zM759.117702 357.931275c-4.235464 1.411139-30.853705 7.93267-14.249539 59.288315l-0.203638 0c43.358507 45.305859 73.271794 118.3075 73.271794 190.098569 0 110.443391-69.170382 168.319543-153.195078 168.319543-61.911048 0-115.215068-31.593556-139.146107-92.158956 50.212612-41.4746 84.765569-106.040105 84.765569-192.989409 0-92.831268-43.49256-177.527253-89.001033-232.178967 72.53092-27.427676 185.79659-82.613556 218.197534-166.908404 114.206088 6.317892 215.709877 30.048363 215.709877 95.353718 0 15.595186 0 6.081509 0 21.778003C955.267081 268.460544 851.47825 326.942493 759.117702 357.931275z"  horiz-adv-x="1024" />

    
    <glyph glyph-name="iconfontquanbuxiaoxizhengchang" unicode="&#58885;" d="M349.257143 456.228571c-30.321371 0-54.857143-24.535771-54.857143-54.857143 0-30.2848 24.535771-54.857143 54.857143-54.857143s54.857143 24.572343 54.857143 54.857143C404.114286 431.694629 379.578514 456.228571 349.257143 456.228571zM532.114286 456.228571c-30.321371 0-54.857143-24.572343-54.857143-54.857143 0-30.2848 24.535771-54.857143 54.857143-54.857143s54.857143 24.572343 54.857143 54.857143C586.971429 431.658057 562.435657 456.228571 532.114286 456.228571zM714.971429 456.228571c-30.321371 0-54.857143-24.535771-54.857143-54.857143 0-30.2848 24.535771-54.857143 54.857143-54.857143s54.857143 24.572343 54.857143 54.857143C769.828571 431.694629 745.2928 456.228571 714.971429 456.228571zM937.865143 120.978286c57.607314 83.000686 87.963429 179.5712 87.963429 280.427886 0 272.250514-221.463771 493.714286-493.714286 493.714286s-493.714286-221.500343-493.714286-493.750857c0-272.1792 221.463771-493.677714 493.714286-493.714286 79.3216 0 157.856914 19.392 228.178286 56.1792l181.893486-54.606629c12.999314-3.893029 26.858057-0.356571 36.357486 9.179429 9.499429 9.499429 13.035886 23.464229 9.179429 36.357486L937.865143 120.978286zM766.721829 38.264686c-9.499429 2.856229-19.821714 1.678629-28.500114-3.178057C675.399314-0.449829 604.114286-19.2 532.114286-19.2c-231.892114 0.036571-420.571429 188.714057-420.571429 420.571429 0 231.928686 188.679314 420.608 420.571429 420.608s420.571429-188.679314 420.571429-420.571429c0-91.143314-29.143771-178.177829-84.286171-251.7504-6.965029-9.285486-9.106286-21.321143-5.7856-32.427886l35.536457-118.392686L766.721829 38.264686z"  horiz-adv-x="1026" />

    
    </font>
</defs>
</svg>
