<?xml version="1.0" encoding="utf-8"?>
<!-- Generator: Adobe Illustrator 22.1.0, SVG Export Plug-In . SVG Version: 6.00 Build 0)  -->
<svg version="1.1" id="图层_1" xmlns="http://www.w3.org/2000/svg" xmlns:xlink="http://www.w3.org/1999/xlink" x="0px" y="0px"
	 viewBox="0 0 200 200" style="enable-background:new 0 0 200 200;" xml:space="preserve">
<style type="text/css">
	.st0{fill:#16B5ED;}
	.st1{fill:none;stroke:#16B5ED;stroke-width:10;stroke-miterlimit:10;}
</style>
<path class="st0" d="M183,8.7c0-1.5-0.5-3-2-4.5c-1-1-3-2-4.5-2H127c-1.5,0-3,0.5-4.5,2c-1,1-2,3-2,4.5v12.5h-28c-1.5,0-3,0.5-4.5,2
	c-1,1-2,3-2,4.5v125c0,1.5,0.5,3,2,4.5c1,1,3,2,4.5,2h28v18.5c0,1.5,0.5,3,2,4.5c1,1,3,2,4.5,2h49.5c1.5,0,3-0.5,4.5-2
	c1-1,2-3,2-4.5v-40.5c0-1.5-0.5-3-2-4.5c-1-1-3-2-4.5-2H127c-1.5,0-3,0.5-4.5,2c-1,1-2,3-2,4.5v3H108c-1.5,0-3-0.5-4.5-2
	c-1-1-2-3-2-4.5v-91c0-1.5,0.5-3,2-4.5c1-1,3-2,4.5-2h12.5v12.5c0,1.5,0.5,3,2,4.5c1,1,3,2,4.5,2h49.5c1.5,0,3-0.5,4.5-2
	c1-1,2-3,2-4.5C183,48.7,183,8.7,183,8.7z"/>
<path class="st1" d="M9.5,89.7c-0.8,0.8-1.6,2.1-1.6,3.7c0,1.2,0.4,2.5,1.6,3.7l25.5,26.3c0.8,0.4,2.1,1.2,3.7,1.2
	c1.2,0,2.9-0.4,3.7-1.6L69,96.7c0.8-0.8,1.6-2.1,1.6-3.7c0-1.6-0.4-2.9-1.6-3.7L42.3,63.4c-0.8-0.8-2.1-1.6-3.7-1.6
	c-1.2,0-2.5,0.4-3.7,1.6C34.9,63.4,9.5,89.7,9.5,89.7z"/>
</svg>
