<?xml version="1.0" encoding="utf-8"?>
<!-- Generator: Adobe Illustrator 22.1.0, SVG Export Plug-In . SVG Version: 6.00 Build 0)  -->
<svg version="1.1" id="图层_1" xmlns="http://www.w3.org/2000/svg" xmlns:xlink="http://www.w3.org/1999/xlink" x="0px" y="0px"
	 viewBox="0 0 200 200" style="enable-background:new 0 0 200 200;" xml:space="preserve">
<style type="text/css">
	.st0{fill:#0E86FE;}
</style>
<path class="st0" d="M0.2,93.3V26.4C0.2,2,13.6,0.2,26.7,0.2h106.5c20.4,0,26.9,6.9,26.9,26.5v13.5c0,10.5-13.5,9.5-13.5,0V26.7
	c0-9.8-3.3-13.5-13.5-13.5H26.7c-10.9,0-13.5,1.5-13.5,13.5v133.5c0,7.3,4,13.5,13.5,13.5h26.5c8,0,8.7,13.5,0,13.5H21.6
	c-9.5,0-17.5-5.8-20.4-14.5c-0.7-2.5-1.1-5.1-1.1-7.6L0.2,93.3"/>
<path class="st0" d="M132.9,199.8c-36.7,0-66.5-29.8-66.5-66.5s29.8-66.5,66.5-66.5s66.9,30.2,66.9,66.9S170,199.8,132.9,199.8
	L132.9,199.8z M133.3,80.2c-29.1,0-53.1,24-53.1,53.1c0,29.5,23.6,53.1,53.1,53.5c29.5,0,53.5-23.6,53.5-52.7
	C186.4,104.2,162.7,80.2,133.3,80.2z M90.3,60c7,0,6,13.5,0,13.5h-53c-6.5,0-6.3-13.5,0-13.5C37.4,60,90.3,60,90.3,60z M119.8,30.7
	c10.5,0,9.1,13.5,0,13.5h-80c-9.8,0-9.5-13.5,0-13.5C39.8,30.7,119.8,30.7,119.8,30.7z M53.3,93.2c10.5,0,9.1,13.5,0,13.5H39.8
	c-9.8,0-9.5-13.5,0-13.5C39.8,93.2,53.3,93.2,53.3,93.2z"/>
<path class="st0" d="M163.3,158l-18.2-18.2l15.1-8.4c2.2-1.1,3-3.8,1.9-6c-0.5-1-1.3-1.7-2.3-2.1l-51.2-20.6
	c-2.3-0.9-4.9,0.2-5.8,2.5c-0.4,1.1-0.4,2.2,0,3.3l20.7,51.2c0.9,2.3,3.4,3.4,5.7,2.6c1-0.4,1.8-1.1,2.3-2.1L140,145l18.2,18.2
	c1.4,1.4,3.8,1.4,5.2,0s1.4-3.8,0-5.2H163.3z"/>
</svg>
