<?xml version="1.0" encoding="utf-8"?>
<!DOCTYPE svg PUBLIC "-//W3C//DTD SVG 1.1//EN" "http://www.w3.org/Graphics/SVG/1.1/DTD/svg11.dtd">
<svg version="1.1" id="图形" xmlns="http://www.w3.org/2000/svg" xmlns:xlink="http://www.w3.org/1999/xlink" x="0px" y="0px" width="1024px" height="1024px" viewBox="0 0 1024 1024" enable-background="new 0 0 1024 1024" xml:space="preserve">
  <path fill="#56abe4" d="M800 332l-256 0 0 256C544 607.2 531.2 620 512 620S480 607.2 480 588l0-256-256 0C204.8 332 192 319.2 192 300s12.8-32 32-32l256 0 0-256C480-7.2 492.8-20 512-20s32 12.8 32 32l0 256 256 0C819.2 268 832 280.8 832 300S819.2 332 800 332zM806.4 325.6 537.6 325.6 537.6 594.4C537.6 607.2 524.8 620 512 620S486.4 607.2 486.4 594.4l0-268.8L217.6 325.6C204.8 325.6 192 312.8 192 300s12.8-25.6 25.6-25.6l268.8 0 0-268.8C486.4-7.2 499.2-20 512-20s25.6 12.8 25.6 25.6L537.6 274.4l268.8 0C819.2 274.4 832 287.2 832 300S819.2 325.6 806.4 325.6z" transform="translate(0, 812) scale(1, -1)"/>
</svg>
