<?xml version="1.0" encoding="utf-8"?>
<!DOCTYPE svg PUBLIC "-//W3C//DTD SVG 1.1//EN" "http://www.w3.org/Graphics/SVG/1.1/DTD/svg11.dtd">
<svg version="1.1" id="图形" xmlns="http://www.w3.org/2000/svg" xmlns:xlink="http://www.w3.org/1999/xlink" x="0px" y="0px" width="1024px" height="1024px" viewBox="0 0 1024 1024" enable-background="new 0 0 1024 1024" xml:space="preserve">
  <path fill="#56abe4" d="M490.666667 419.921778c0-54.442667-44.145778-98.588444-98.588444-98.588444L148.366222 321.333333c-54.442667 0-98.588444 44.145778-98.588444 98.588444L49.777778 663.633778C49.777778 718.076444 93.923556 762.222222 148.366222 762.222222l243.726222 0c54.442667 0 98.588444-44.145778 98.588444-98.588444L490.680889 419.921778zM433.777778 663.633778c0 23.025778-18.673778 41.699556-41.699556 41.699556L148.366222 705.333333C125.340444 705.333333 106.666667 686.659556 106.666667 663.633778l0-243.726222c0-23.025778 18.673778-41.699556 41.699556-41.699556l243.726222 0c23.025778 0 41.699556 18.673778 41.699556 41.699556L433.792 663.633778zM163.555556 534.666667c-7.864889 0-14.222222 6.357333-14.222222 14.222222l0 25.628444c0 39.395556 26.282667 73.927111 62.421333 73.927111l88.604444 0c7.850667 0 14.222222-6.357333 14.222222-14.222222s-6.371556-14.222222-14.222222-14.222222l-88.604444 0c-22.186667 0-33.976889-24.462222-33.976889-45.482667L177.777778 548.888889C177.777778 541.024 171.406222 534.666667 163.555556 534.666667zM158.136889 485.884444c-3.712 0-7.409778 1.564444-10.097778 4.124444-2.574222 2.688-4.124444 6.4-4.124444 10.097778s1.550222 7.395556 4.124444 10.097778c5.404444 5.262222 14.776889 5.262222 20.195556 0 2.56-2.702222 4.124444-6.4 4.124444-10.097778s-1.564444-7.409778-4.124444-9.955556C165.532444 487.463111 161.834667 485.884444 158.136889 485.884444zM974.222222 419.921778c0-54.442667-44.145778-98.588444-98.588444-98.588444L631.921778 321.333333c-54.442667 0-98.588444 44.145778-98.588444 98.588444L533.333333 663.633778c0 54.442667 44.145778 98.588444 98.588444 98.588444l243.726222 0c54.442667 0 98.588444-44.145778 98.588444-98.588444L974.236444 419.921778zM917.333333 663.633778c0 23.025778-18.673778 41.699556-41.699556 41.699556L631.921778 705.333333c-23.025778 0-41.699556-18.673778-41.699556-41.699556l0-243.726222c0-23.025778 18.673778-41.699556 41.699556-41.699556l243.726222 0c23.025778 0 41.699556 18.673778 41.699556 41.699556L917.347556 663.633778zM490.666667-63.633778c0-54.442667-44.145778-98.588444-98.588444-98.588444L148.366222-162.222222c-54.442667 0-98.588444 44.145778-98.588444 98.588444L49.777778 180.078222c0 54.442667 44.145778 98.588444 98.588444 98.588444l243.726222 0c54.442667 0 98.588444-44.145778 98.588444-98.588444L490.680889-63.633778zM433.777778 180.078222c0 23.025778-18.673778 41.699556-41.699556 41.699556L148.366222 221.777778c-23.025778 0-41.699556-18.673778-41.699556-41.699556l0-243.726222c0-23.025778 18.673778-41.699556 41.699556-41.699556l243.726222 0c23.025778 0 41.699556 18.673778 41.699556 41.699556L433.792 180.078222zM974.222222-63.633778c0-54.442667-44.145778-98.588444-98.588444-98.588444L631.921778-162.222222c-54.442667 0-98.588444 44.145778-98.588444 98.588444L533.333333 180.078222c0 54.442667 44.145778 98.588444 98.588444 98.588444l243.726222 0c54.442667 0 98.588444-44.145778 98.588444-98.588444L974.236444-63.633778zM917.333333 180.078222c0 23.025778-18.673778 41.699556-41.699556 41.699556L631.921778 221.777778c-23.025778 0-41.699556-18.673778-41.699556-41.699556l0-243.726222c0-23.025778 18.673778-41.699556 41.699556-41.699556l243.726222 0c23.025778 0 41.699556 18.673778 41.699556 41.699556L917.347556 180.078222z" transform="translate(0, 812) scale(1, -1)"/>
</svg>
