<?xml version="1.0" encoding="utf-8"?>
<!DOCTYPE svg PUBLIC "-//W3C//DTD SVG 1.1//EN" "http://www.w3.org/Graphics/SVG/1.1/DTD/svg11.dtd">
<svg version="1.1" id="图形" xmlns="http://www.w3.org/2000/svg" xmlns:xlink="http://www.w3.org/1999/xlink" x="0px" y="0px" width="1024px" height="1024px" viewBox="0 0 1024 1024" enable-background="new 0 0 1024 1024" xml:space="preserve">
  <path fill="#56abe4" d="M807.845873 706.453182l-592.286316 0c-92.76818 0-167.695184-74.928027-167.695184-167.695184l0-476.921428c0-92.76818 74.928027-168.289753 167.695184-168.289753l592.286316 0c92.76818 0 168.289753 75.522597 168.289753 168.289753l0 476.921428C976.135627 631.526179 900.61303 706.453182 807.845873 706.453182zM77.596938 61.836571l0 406.156409 179.588619 0 0-544.712575-41.627023 0C139.442391-76.720618 77.596938-14.280595 77.596938 61.836571zM488.510926-76.720618l-201.591781 0L286.919145 99.300585l201.591781 0C488.510926 99.300585 488.510926-76.720618 488.510926-76.720618zM488.510926 129.034172l-201.591781 0L286.919145 283.646783l201.591781 0C488.510926 283.646783 488.510926 129.034172 488.510926 129.034172zM488.510926 313.38037l-201.591781 0 0 154.61261 201.591781 0C488.510926 467.99298 488.510926 313.38037 488.510926 313.38037zM719.835272-76.720618 518.243491-76.720618 518.243491 99.300585l201.591781 0L719.835272-76.720618zM719.835272 129.034172 518.243491 129.034172 518.243491 283.646783l201.591781 0L719.835272 129.034172zM719.835272 313.38037 518.243491 313.38037l0 154.61261 201.591781 0L719.835272 313.38037zM946.403062 61.836571c0-76.117166-62.440023-138.557189-138.557189-138.557189l-58.277013 0L749.56886 99.300585l196.834202 0L946.403062 61.836571zM946.403062 129.034172 749.56886 129.034172 749.56886 283.646783l196.834202 0L946.403062 129.034172zM946.403062 313.38037 749.56886 313.38037l0 154.61261 196.834202 0L946.403062 313.38037zM946.403062 497.726568l-868.805101 0 0 41.03143c0 76.117166 61.845453 137.96262 137.96262 137.96262l592.286316 0c76.117166 0 138.557189-61.845453 138.557189-137.96262L946.404085 497.726568z" transform="translate(0, 812) scale(1, -1)"/>
</svg>
